<svg width="640" height="640" viewBox="0 0 640 640" fill="none" xmlns="http://www.w3.org/2000/svg">
<g clip-path="url(#clip0_127_1032)">
<path d="M222 398.5H217C213 389 207.4 370.2 217 371C226.6 371.8 224.333 389.667 222 398.5Z" stroke="black"/>
<path d="M185.999 364.002C186.399 360.802 178.833 358.668 174.999 358.002C177.5 347.502 198.392 325.739 223.5 331.002C254.5 337.5 253.5 390.835 248 418.502C233.2 434.102 206.5 442.335 194.999 444.502C168.199 429.702 167.833 390.002 170.999 372.002C178.499 372.002 185.499 368.002 185.999 364.002Z" stroke="black"/>
<path d="M103.5 409C104.167 408.667 105.8 407.5 107 405.5C108.5 403 130.5 345.5 167 325.5M172.5 323.5C187.833 313 227.8 298.7 265 325.5C262 324.167 254.7 321.4 249.5 321C254.167 325.5 263.8 336.1 265 342.5C254.5 333.5 222.993 316.382 190 336.5C149 361.5 132 403.5 133.5 413.5C135 423.5 137.5 442.5 143.5 447C133 441.833 111 429.7 107 422.5" stroke="black"/>
<path d="M127.5 497C135.833 542 188.4 626.4 332 604C338.333 607.5 351.6 618.5 354 634.5M599 361C621.667 403.833 625 506.1 457 572.5C455 576.5 452.6 589.5 459 609.5" stroke="black"/>
<path d="M456.5 595.5C463.167 600.667 466.2 615.4 425 633M425 633L430 639M425 633L424 639M348.5 620C346.953 621.442 345.747 623.175 345.371 625M401.5 639C354.161 639.947 343.964 631.826 345.371 625M345.371 625L340 639" stroke="black"/>
<path d="M103.501 217.5C88.8342 282.167 78.1008 429.3 152.501 500.5C129.834 499.667 77.2009 486.8 48.0009 442C51.5009 461.167 61.6009 502.6 74.0009 515C33.3342 467 -32.0991 336.3 31.5009 197.5C95.1009 58.7005 209 23.3338 258 23.0005C277.667 14.5005 336.1 4.00046 412.5 30.0005C508 62.5005 644.5 188 634.5 342C632.333 325.667 626.6 289.6 621 276C620.667 296 612.4 345.8 582 385C575.667 309.5 543.5 150.7 465.5 119.5" stroke="black"/>
<path d="M99.5 393.5C100.684 365.468 130.87 295.184 146.397 262.275" stroke="black"/>
<path d="M209.5 77C210.667 129.5 240.9 241.6 352.5 270C328.333 253.833 279.6 214.4 278 186C287.833 212.333 329 265.5 415 267.5C381 229.333 312.7 143.7 311.5 106.5C327.667 158.167 391.3 262.1 516.5 264.5C488.167 242.5 428.9 190.2 418.5 157C446 194.333 513.4 270.1 563 274.5" stroke="black"/>
<path d="M149.5 180C142.666 213.833 137.9 292 173.5 334C171.542 319.43 170.352 287.95 175.091 248.5M188.5 180C181.826 204.195 177.616 227.479 175.091 248.5M175.091 248.5C189.394 219.833 218 156.2 218 131" stroke="black"/>
<path d="M75.5 471.5C86.1667 507.667 106.1 591.9 100.5 639.5" stroke="black"/>
<path d="M456 595.5C459.333 596.333 468.8 603.1 480 623.5M480 623.5C480.167 626 479.7 632.6 476.5 639M480 623.5L539.5 639" stroke="black"/>
<path d="M172 570.5C175.667 579.833 183.4 606.5 185 638.5M251 605V638.5M526 538C538.167 565 567.2 622.9 586 638.5M584 485C594 517.5 619.8 588.5 643 612.5M614.5 318.5C617.667 337.167 627.4 379.9 641 401.5" stroke="black"/>
<path d="M325 469.5C334.167 471.833 359.1 473.1 385.5 459.5C396.333 458.5 421.5 452.4 435.5 436" stroke="black"/>
<path d="M434.501 246.5C427.501 250.333 413.001 258.9 411.001 262.5M407.001 267.5C403.001 273.167 395.101 284.9 395.501 286.5C395.7 285.5 404.002 277 407.001 274C405.667 280.667 403.3 295.2 404.5 300C412.667 284.833 436.6 255.2 467 258M486 239C487.5 239 491.5 238 495.5 239M506 264.5C519.667 270.5 548.5 285.7 554.5 298.5C560.5 311.3 561 328.833 560.5 336C564 331.667 571.1 321.3 571.5 314.5M428.5 286C436 285.5 451.2 286.5 452 294.5C452.8 302.5 436 300.833 427.5 299C429.5 315.667 439.7 351.3 464.5 360.5C477.833 362.667 506.3 365.1 513.5 357.5C522.5 348 525 300 496.5 275C477.12 258 457.5 259 452 261C443.084 264.242 434.5 272 428.5 286Z" stroke="black"/>
<path d="M463 314.5C462.2 312.1 463.333 306.5 464 304C465 303.667 467.6 303.2 470 304C473 305 486 328.5 476.5 328.5C467 328.5 464 317.5 463 314.5Z" stroke="black"/>
</g>
<defs>
<clipPath id="clip0_127_1032">
<rect width="640" height="640" fill="white"/>
</clipPath>
</defs>
</svg>
