<svg  width="421" height="261" viewBox="0 0 238 122" fill="black" xmlns="https://www.w3.org/2000/svg">
    <path d="M88.0373 44.3498C88.1898 44.3803 88.3423 44.4108 88.4643 44.4108C89.3488 44.4108 89.9893 43.8008 90.1723 43.1298C90.2333 42.8857 90.3554 42.6417 90.4774 42.3977C90.7214 41.8792 90.7824 41.1167 90.4469 40.6287C90.2943 40.4152 89.9893 40.1712 89.4403 40.2322C89.3793 40.2322 89.2878 40.2322 89.1963 40.2627C88.7388 40.2932 88.1288 40.3237 87.7628 40.6592C86.8783 41.3912 86.7868 42.7942 87.0918 43.4348C87.3663 43.9838 87.6713 44.2583 88.0373 44.3498Z" fill="black"></path>
    <path d="M222.363 12.2035C221.387 9.73289 218.306 10.6479 217.239 11.3799C213.487 14.064 206.685 19.0662 200.616 22.3297C194.394 25.6848 178.838 32.6695 172.037 35.0181C170.878 35.4146 169.749 35.8111 168.62 36.2076C166.699 31.236 164.716 25.7763 162.642 19.4017C162.185 17.9376 161.331 15.6196 159.989 15.8331C157.244 16.2601 157.274 19.0357 158.921 20.9572C159.653 21.7807 160.507 24.0073 161.087 25.1968C162.947 29.2534 164.533 33.0355 166.119 37.0312C163.832 37.7937 161.605 38.4952 159.47 39.0747C158.86 37.2142 158.159 35.2011 157.427 33.0355C155.444 27.3624 152.18 16.8091 151.021 14.7655C150.35 13.6065 148.49 15.0095 148.032 16.7481C147.88 17.3276 149.008 20.6217 149.191 21.0487C148.581 26.8439 148.154 30.9615 147.117 37.1837C146.965 38.1292 146.812 38.9832 146.69 39.8067C145.409 39.4102 144.494 38.8612 143.976 38.4342C143.366 37.9157 142.024 37.7022 140.987 38.4342C140.194 38.9832 139.187 40.1117 138.211 41.0878C137.388 41.9113 136.351 42.6433 135.741 43.1618C136.046 42.4298 136.381 41.6978 136.656 41.0268C136.961 40.2947 137.174 39.7762 137.388 39.2882C137.845 38.1902 137.479 37.0922 136.534 36.3906C135.527 35.6586 134.643 35.7196 133.605 36.6651C133.148 37.0922 132.843 37.6412 132.355 38.0072C131.806 38.4647 131.013 37.3362 130.22 37.2141C128.542 37.0006 126.834 37.9462 125.706 39.4102C124.974 40.3862 124.425 41.5148 124.425 41.5148C123.601 39.8677 122.473 38.8612 120.185 39.2272C119.24 39.3797 118.203 39.7152 117.196 40.3557C115.701 41.3318 116.83 40.6302 115.03 40.7828C113.78 40.8743 113.414 41.9113 112.956 42.9788C112.865 43.1618 112.804 43.3753 112.682 43.6193C111.889 45.2359 110.638 46.6999 109.388 48.1335C108.381 49.2925 106.307 50.909 104.66 50.665C103.776 50.5125 104.721 48.6215 105.27 47.7674C106.216 46.3339 107.009 45.4799 107.863 44.1378C108.442 43.1923 108.381 42.1553 107.68 41.6368C106.734 40.9353 105.758 40.6302 104.233 42.3993C103.196 43.6193 102.007 45.3274 100.939 46.5474C99.3835 48.3165 95.1439 53.0441 93.2834 54.5996C95.3574 51.9156 100.055 43.9243 97.9805 43.1008C96.547 42.5213 95.4489 42.7653 93.9239 45.0834C89.1353 52.3426 83.3706 57.4972 79.6495 55.6977C81.5405 53.8371 85.0481 51.5801 86.5732 49.384C87.9762 47.0659 85.0176 44.5038 82.9741 46.5169C80.5035 48.5605 73.2138 58.6867 70.4077 57.2532C68.3032 56.1857 70.4077 52.7086 71.2313 51.6716C72.4513 50.1465 74.1288 48.9265 75.1354 47.7064C77.2704 45.5104 74.1898 42.5823 72.0243 44.3818C69.5842 46.8829 67.1442 48.9265 64.6126 50.6345C67.0527 31.5715 70.3467 19.3407 73.5798 10.0074C74.3728 7.71985 78.582 -0.179877 74.2204 0.00312779C69.4927 0.186133 70.3467 6.0118 69.6757 9.09238C68.1812 15.9856 64.2161 35.0486 61.7455 51.4275C61.6845 51.7936 61.6235 52.1291 61.593 52.4951C53.1443 57.2532 43.7195 58.8392 31.5802 60.7608C21.2099 62.1333 7.94203 61.7673 3.33641 61.0353C-0.232192 60.4253 -1.36072 64.4514 2.05537 65.0919C10.0771 65.1834 20.6609 64.6039 31.5802 63.0484C41.737 61.5843 52.1682 59.2663 61.105 55.8502C57.6584 79.4883 57.2924 89.7061 55.5233 116.333C55.2793 120.054 57.4754 123.013 60.5865 121.671C64.8261 119.963 61.8065 115.022 61.7455 111.575C61.532 95.8978 59.8545 89.8281 64.1246 54.5996C65.0396 54.2031 65.9241 53.8066 66.7781 53.4101C64.6431 56.6737 67.8152 59.2053 71.3838 59.0528C74.9219 59.0528 77.4839 56.7347 77.4839 56.7347C79.6495 58.4732 82.7911 58.0767 86.0547 56.5822C88.4947 55.4842 90.9043 53.4711 92.2463 52.4341C91.3008 53.7761 90.1723 55.2096 89.2268 56.3382C88.0067 57.8327 86.8477 59.2358 85.4142 60.8828C84.4076 62.0418 83.0046 63.2314 84.2856 64.7259C85.4752 66.556 87.3357 65.6409 88.4642 64.3294C92.7649 59.3273 94.4424 56.5822 98.865 51.7936C99.353 51.275 100.146 50.5125 100.909 49.9025C100.909 49.9025 100.848 50.97 101.122 51.5495C101.732 52.9831 104.569 52.7086 106.094 52.3731C107.009 52.1901 107.924 51.7326 108.778 51.336C109.754 50.8785 109.174 52.5561 110.455 52.4951C110.638 52.4951 110.821 52.4646 110.974 52.4341C112.56 52.2511 113.353 51.5191 113.963 50.299C114.817 48.591 116.434 45.7239 117.501 44.1378C117.837 43.6498 118.325 42.4908 119.789 42.8873C120.307 43.0398 120.826 43.9243 120.429 44.6564C119.911 45.6324 119.209 46.5779 118.63 47.4929C117.959 48.591 117.806 49.7805 118.721 50.5125C119.606 51.214 120.765 51.092 121.832 50.0855C122.229 49.7195 122.595 49.323 123.052 48.835C125.187 50.177 126.072 50.177 128.085 48.652C128.634 48.225 129.122 47.7674 129.61 47.2794C130.952 45.9984 131.287 45.6934 132.66 46.2729C133.697 46.7304 134.124 47.5539 135.558 47.2489C136.595 47.0354 137.845 45.9374 138.577 45.0529C139.462 43.9548 141.139 41.9723 141.871 41.8808C142.695 41.7893 143.823 42.6128 145.165 42.8263C145.501 42.8873 145.806 42.9178 146.172 42.9178C145.775 45.7849 145.44 48.347 144.799 51.6105C144.342 53.8981 142.908 56.8567 144.83 58.6562C145.806 59.3273 146.904 59.1138 147.605 58.3207C148.917 56.8872 148.368 55.1487 148.307 53.9591C148.673 50.238 148.978 46.5779 149.283 42.9178C151.601 42.7348 154.224 42.2468 157 41.5453C158.586 46.2119 160.08 51.0615 162.124 57.9242C164.564 66.19 165.174 69.9111 166.821 78.0548C167.583 81.8369 172.525 82.3554 172.403 77.9633C166.302 61.2793 164.655 54.7521 160.019 40.7217C162.215 40.1117 164.472 39.3797 166.76 38.6477C166.943 39.1357 167.156 39.6237 167.339 40.1422C170.572 48.53 173.074 55.6062 175.422 63.8719C175.941 65.6714 176.612 67.9285 178.594 67.3185C182.651 66.0069 178.93 62.4993 175.392 53.4101C173.47 48.4385 171.396 43.4363 169.23 37.8547C170.298 37.4887 171.396 37.1226 172.464 36.7566C183.352 33.066 201.622 25.1968 205.465 23.5193C210.315 21.5977 224.01 16.3516 222.363 12.2035ZM130.311 43.4058C129.762 44.5039 126.956 46.8829 126.346 46.6389C125.096 46.1509 126.529 43.5888 127.078 42.5518C127.932 40.9353 129.762 39.5017 130.555 40.2032C131.531 41.0573 130.982 42.0028 130.311 43.4058ZM151.387 40.3862C150.777 40.4167 150.198 40.3862 149.649 40.3557C150.076 35.2926 150.503 30.1685 151.021 24.7393C153.309 30.87 154.956 35.3536 156.481 39.7762C154.773 40.1117 153.065 40.3557 151.387 40.3862Z" fill="black"></path>
    <path d="M229.193 12.5091C228.003 12.8446 227.424 13.9731 227.729 14.9187C228.278 16.7182 229.528 16.3827 230.413 15.8032C230.992 15.4372 231.419 14.2781 231.206 13.6376C230.992 13.0581 229.833 12.3261 229.193 12.5091Z" fill="black"></path>
    <path d="M230.351 4.5209C229.619 3.66687 228.246 3.42287 227.453 4.36839C226.752 5.16142 226.965 6.16794 227.545 7.08297C228.429 8.4555 228.734 8.94352 229.222 9.82804C229.558 10.4381 229.771 11.0176 230.107 11.0481C230.473 11.0786 231.479 10.4991 232.425 9.98055C233.675 9.27903 234.529 8.88252 235.658 8.181C237 7.35748 237.793 6.16794 236.939 4.8869C236.085 3.66687 234.499 3.84987 233.401 4.8869C232.333 5.89343 231.723 6.86946 231.174 7.72349C231.144 6.56445 231.022 5.34442 230.351 4.5209Z" fill="black"></path>
    <path d="M173.768 99.957H171.328L166.661 104.776V99.957H164.801V112.035H166.661V107.033L167.027 106.667L171.328 112.035H173.799L168.308 105.417L173.768 99.957Z" fill="black"></path>
    <path d="M178.066 104.41H176.297V112.035H178.066V104.41Z" fill="black"></path>
    <path d="M177.187 102.363C177.81 102.363 178.316 101.857 178.316 101.234C178.316 100.611 177.81 100.105 177.187 100.105C176.564 100.105 176.059 100.611 176.059 101.234C176.059 101.857 176.564 102.363 177.187 102.363Z" fill="black"></path>
    <path d="M181.572 104.41V106.027H185.781L180.84 112.035H188.862V110.388H184.225L189.136 104.41H181.572Z" fill="black"></path>
    <path d="M196.336 108.772C196.336 109.229 196.306 109.748 196.001 110.144C195.757 110.449 195.36 110.663 194.842 110.663C194.323 110.663 193.927 110.449 193.683 110.144C193.378 109.748 193.347 109.229 193.347 108.772V104.41H191.578V108.833C191.578 109.809 191.7 110.632 192.402 111.334C193.103 112.035 194.018 112.279 194.811 112.279C195.665 112.279 196.611 112.035 197.282 111.334C197.983 110.632 198.105 109.809 198.105 108.833V104.41H196.336V108.772Z" fill="black"></path>
    <path d="M205.156 104.195C204.729 104.195 203.845 104.256 203.082 105.11V104.409H201.344V112.034H203.113V108.374C203.113 105.903 203.936 105.812 204.729 105.812C205.4 105.812 206.132 105.873 206.132 107.794V112.034H207.901V107.367C207.901 106.178 207.718 105.659 207.444 105.263C207.169 104.897 206.59 104.195 205.156 104.195Z" fill="black"></path>
    <path d="M216.287 105.293C215.555 104.348 214.579 104.195 214.03 104.195C212.017 104.195 210.309 105.72 210.309 108.191C210.309 110.295 211.651 112.248 213.999 112.248C214.548 112.248 215.494 112.126 216.287 111.211V112.004H218.056V104.378H216.287V105.293ZM214.243 110.661C212.962 110.661 212.139 109.563 212.139 108.221C212.139 106.849 212.962 105.781 214.243 105.781C215.372 105.781 216.409 106.574 216.409 108.252C216.378 109.838 215.372 110.661 214.243 110.661Z" fill="black"></path>
    <path d="M220.859 112.034H222.842L224.153 109.106H229.308L230.589 112.034H232.572L226.838 99.2539L220.859 112.034ZM224.916 107.367L226.777 103.28L228.576 107.367H224.916Z" fill="black"></path>
    <path d="M237.177 99.3164H235.316V112.035H237.177V99.3164Z" fill="black"></path>
</svg>