<?xml version="1.0" encoding="utf-8"?>
<!-- Generator: Adobe Illustrator 24.0.2, SVG Export Plug-In . SVG Version: 6.00 Build 0)  -->
<svg version="1.1" id="图层_1" xmlns="http://www.w3.org/2000/svg" xmlns:xlink="http://www.w3.org/1999/xlink" x="0px" y="0px"
	 viewBox="0 0 640 640" style="enable-background:new 0 0 640 640;" xml:space="preserve">
<style type="text/css">
	.st0{fill:#FFFFFF;stroke:#000000;stroke-miterlimit:10;}
</style>
<g>
	<path class="st0" d="M406.35,277.17c0.14,0.05,0.28,0.1,0.43,0.18c0.11,0.06,0.2,0.12,0.3,0.18c0.05-0.28,0.1-0.55,0.14-0.83
		C406.91,276.84,406.63,277.01,406.35,277.17z"/>
	<path class="st0" d="M517.85,266.33c-0.01,0.09,0,0.18-0.03,0.28c-0.03,0.1-0.07,0.17-0.11,0.26c0.33,0,0.67,0,1.04,0
		C518.44,266.69,518.15,266.51,517.85,266.33z"/>
	<path class="st0" d="M633.26,340.67c-0.09-0.5-0.18-1-0.26-1.51c0.07,0.57,0.14,1.14,0.21,1.72
		C633.22,340.82,633.24,340.74,633.26,340.67z"/>
	<path class="st0" d="M367.24,208.17c0.16-0.1,0.31-0.17,0.46-0.22c-0.22-0.24-0.45-0.48-0.66-0.73
		C367.1,207.54,367.17,207.86,367.24,208.17z"/>
	<path class="st0" d="M48.23,447.14c0.05-0.03,0.1-0.04,0.16-0.07c-0.09-0.13-0.19-0.25-0.28-0.38
		C48.15,446.84,48.19,446.98,48.23,447.14z"/>
	<path class="st0" d="M581.04,381.81c-0.09-0.04-0.16-0.09-0.24-0.14c-0.03,0.19-0.05,0.38-0.07,0.58
		C580.83,382.1,580.94,381.95,581.04,381.81z"/>
	<path class="st0" d="M77.49,474.94c0.02-0.02,0.05-0.04,0.07-0.06c-0.04-0.02-0.08-0.05-0.11-0.07
		C77.46,474.86,77.48,474.9,77.49,474.94z"/>
	<path class="st0" d="M313.96,117.34c0.17,0.53,0.35,1.06,0.53,1.59c-0.03-0.13-0.07-0.27-0.11-0.4
		C314.24,118.14,314.1,117.73,313.96,117.34z"/>
	<path class="st0" d="M579.04,386.79c-0.03-0.02-0.06-0.04-0.09-0.06c-0.01,0.07-0.02,0.14-0.04,0.21
		C578.96,386.89,579,386.84,579.04,386.79z"/>
	<path class="st0" d="M619,288.14c0.02-0.01,0.04-0.03,0.06-0.04c-0.02-0.02-0.03-0.03-0.04-0.05
		C619.01,288.08,619,288.11,619,288.14z"/>
	<path class="st0" d="M225.36,331.93c-0.02-0.07-0.05-0.13-0.07-0.21c-0.06,0.04-0.12,0.07-0.18,0.12
		C225.19,331.87,225.28,331.9,225.36,331.93z"/>
	<polygon class="st0" points="250.28,323.09 250.28,323.09 250.28,323.09 	"/>
	<path class="st0" d="M181.02,214.22c-0.17,0.91-0.33,1.79-0.5,2.69c0.03-0.1,0.05-0.2,0.08-0.29
		C180.74,215.82,180.88,215.02,181.02,214.22z"/>
	<path class="st0" d="M221.05,159.74c0.01,0,0.02,0,0.03,0c0-0.01-0.01-0.02-0.01-0.03C221.06,159.72,221.06,159.73,221.05,159.74z"
		/>
	<path class="st0" d="M186.58,367.83c-0.07-0.4-0.13-0.82-0.22-1.19c-0.12,0.45-0.24,0.91-0.28,1.37
		C186.24,367.96,186.41,367.88,186.58,367.83z"/>
	<path class="st0" d="M99.1,389.88c0,0.01,0,0.02,0.01,0.03c0-0.01,0-0.02,0.01-0.03C99.11,389.88,99.11,389.88,99.1,389.88z"/>
	<path class="st0" d="M172.17,333.62c-0.13,0.08-0.26,0.15-0.42,0.21c-0.12,0.04-0.23,0.05-0.34,0.07c0.27,0.44,0.55,0.9,0.84,1.39
		C172.22,334.67,172.19,334.12,172.17,333.62z"/>
	<path class="st0" d="M246.11,358.97C246.11,358.97,246.11,358.97,246.11,358.97c-0.01-0.04-0.02-0.08-0.03-0.12
		c-0.02,0.01-0.03,0.02-0.05,0.04C246.06,358.92,246.09,358.94,246.11,358.97C246.11,358.97,246.11,358.97,246.11,358.97z"/>
	<path class="st0" d="M95.15,565.66c-0.25-1.07-0.6-2.33,0.89-2.96c0.02-1.06,0.04-2.12,0.06-3.18c0,0,0,0,0,0
		c-2.04-0.93-1.84-2.85-2.13-4.63c-4.14-25.49-8.57-50.88-16.72-75.53c-2.4-7.26-8.45-10.2-12.75-15.19
		c-6.06-4.56-11.13-10.08-16.11-17.1c-0.05,0.02-0.1,0.04-0.16,0.07c1.43,5.29,2.59,9.58,3.75,13.86h0
		c5.35,15.15,10.75,30.28,17.61,44.84l0,0c1.9,3.21,3.8,6.42,5.7,9.62c-0.26,0.22-0.52,0.44-0.78,0.65c-2.15-2.4-4.3-4.79-6.44-7.19
		c0,0,0,0,0,0c0,0,0,0,0,0c-4.22-1.8-3.9-6.91-6.95-9.56c0,0,0,0,0,0c-7.01-7.37-11.94-16.2-16.96-24.9
		c-9.28-16.08-17.39-32.73-22.94-50.52c-5.37-15.48-9.45-31.27-11.3-47.59c-2.18-10.47-2.26-21.14-2.94-31.76c0,0,0-0.01,0-0.01
		c0,0,0,0.01,0,0.01c-1.17-11.06-1.21-22.11,0-33.17c0.35-6.16-1.16-12.54,2.09-18.37c0,0,0,0,0,0c-0.15-2.43,0.02-4.82,1.03-7.08v0
		l0,0c-2.28-3.71-0.29-7.47,0.19-11.07c6.77-50.93,25.79-96.9,55.87-138.52c11.06-15.31,22.96-29.64,37.9-41.3
		c17.13-14.9,36.6-26.35,55.71-38.42c22.91-14.47,47.74-23.78,73.9-30.01c5.96-1.42,12.02-2.5,18.18-2.73c0,0,0,0,0,0
		c8.74-2.57,17.48-5.13,26.22-7.7c3.33-0.68,6.51-2.13,10.01-1.92c0.32-0.12,0.63-0.25,0.95-0.37c3.65-1.72,7.46-0.77,11.21-0.67
		c16.61-0.35,33.23-0.77,49.72,2c13.15,1.53,26.09,4.18,38.89,7.52c0.14,0.02,0.29,0.05,0.46,0.12c21.87,4.8,42.54,12.8,62.32,23.21
		c38.08,20.03,69.17,48.67,98.13,79.89c1.8,1.94,3.48,4,5.21,6c28.17,30.49,51.63,63.99,65.88,103.35c2.48,6.84,4.64,13.8,6.94,20.7
		c8.71,30.06,11.46,60.49,6.46,91.41c-0.46,0.06-0.92,0.11-1.38,0.17c-1.55-9.46-3.04-18.93-4.68-28.38
		c-1.67-9.65-3.99-19.15-6.56-28.64c-1.55,0.31-0.75,1.98-1.58,2.69c0,0,0,0,0,0c-0.35,8.03-2.6,15.7-4.53,23.42
		c-0.57,2.28-1.07,4.43-0.41,6.82c6.59,24.03,13.99,47.79,23.38,70.9c0.36,0.89,0.94,1.69,1.42,2.53
		c0-130.93-0.01-261.85,0.08-392.78c0-3.18-0.31-4.22-3.96-4.22C425.32,0.12,214.6,0.11,3.88,0.04C0.86,0.04,0,0.59,0,3.81
		C0.1,214.69,0.1,425.57,0,636.45c0,3.06,0.71,3.56,3.61,3.55c32.15-0.12,64.3-0.08,96.45-0.08c-0.3-17.73-0.56-35.47-2.26-53.14
		C97.12,579.72,96.76,572.61,95.15,565.66z"/>
	<path class="st0" d="M639.92,610.93c-5.19-6.63-9.47-13.82-13.05-21.43c0,0,0,0,0,0c-8.57-13.3-14.98-27.7-21.36-42.12
		c-8.35-18.86-15.16-38.27-21.29-57.94c-0.24-0.78-0.25-1.63-0.36-2.44l0,0c-1.68-0.33-2.27,0.98-3.05,2.01
		c-14.44,19.21-32.69,34.1-52.88,46.8v0c-1.85,0.99-2.27,2.4-1.24,4.23c14.01,35.55,32.74,68.31,57.62,97.44
		c0.63,0.74,1.08,1.64,1.62,2.46c17,0,33.99-0.06,50.99,0.07c2.5,0.02,3.12-0.56,3.07-3.07
		C639.81,628.26,639.92,619.59,639.92,610.93z"/>
	<path class="st0" d="M527.33,545.67c-0.68-1.83-1.79-3.61-1.35-5.72l0,0h0c-1.48-1.96-2.75-0.94-4.37,0.02
		c-14.51,8.64-29.01,17.32-44.55,24.06c0,0,0,0,0,0c-5.06,2.32-10.02,4.94-15.23,6.87c-4.96,1.84-7.78,4.63-7.01,10.17
		c0.08,1.16,0.18,2.31,0.23,3.47c0.22,6,0.48,11.16,6.89,15.26c7.11,4.54,12.66,11.52,15.17,20.15c0.26,0.15,0.52,0.3,0.78,0.45
		c0.01,0.02,0.02,0.03,0.03,0.05c2.9,5.17,9.01,3.74,13.15,6.36c0,0,0,0,0,0c0,0,0,0,0,0c11.76,2.49,23.31,5.81,34.85,9.16
		c3.8,0.98,7.74,1.54,11.03,3.95c15.66,0,31.33,0,46.99,0c-11.31-14.11-22.57-28.25-31.82-43.85
		C542.54,579.92,533.89,563.31,527.33,545.67z"/>
	<path class="st0" d="M137.58,541.8c-1.35-8.3-3.98-16.36-4.51-24.8c0,0,0,0,0,0c-1.89-5.61-3.82-11.21-5.65-16.83
		c-0.52-1.59-0.84-2.92-2.88-3.5c-16.55-4.68-31.84-12.18-46.97-21.77c-0.02,0.02-0.05,0.04-0.07,0.06
		c9.5,27.92,15.52,55.93,18.61,84.58c0,0,0,0,0,0c-0.02,1.06-0.04,2.12-0.06,3.18c1.99,2.09,1.65,4.83,1.98,7.35
		c3.08,23.19,3.63,46.53,4.04,69.87c12,0,23.99,0,35.99,0c3.34-18.97,4.11-38.08,4.12-57.33
		C142.19,568.74,139.77,555.33,137.58,541.8z"/>
	<path class="st0" d="M629.58,469.75c-5.49-8.96-11.4-17.71-15.7-27.36c-1.58-3.54-2.24-7.54-5.18-10.41
		c-2.06,7.78-3.62,15.72-6.82,23.15c-0.73,1.7-0.96,3.86-3.02,4.78c0,0-0.12-0.1-0.12-0.1c-0.02,0.02-0.03,0.05-0.05,0.07
		c0.05,0.01,0.11,0.02,0.16,0.03c-1.24,6.89-6.54,11.54-9.59,17.42c-1.64,3.16-5.94,5.12-4.58,9.69
		c9.39,27.3,19.05,54.5,31.93,80.42c3.39,6.82,6.94,13.57,10.42,20.35c3.46,5.77,6.89,11.56,10.4,17.31
		c0.65,1.07,0.94,2.54,2.5,2.84c0-41.32,0-82.64,0-123.96C635.31,480.09,632.62,474.71,629.58,469.75z"/>
	<path class="st0" d="M426,633.9c1.13-1.96,3.29-2.46,5.08-3.43c8.75-4.77,16.72-10.51,23.46-17.92c1.79-1.96,2.84-3.96,2.41-6.61
		c-2.26-6.08-2.94-12.43-3.2-18.85c0,0,0,0,0,0c-1.71-4.41-0.66-8.81,0.09-13.21c-25.74,10.32-52.22,18.11-79.43,23.43
		c-14.44,2.82-28.97,5.03-43.57,6.76c0,0,0,0,0,0c-0.06,1.17-1.11,1.4-1.84,1.94c0.85,1.36,1.68,0.61,2.51-0.02c0,0,0,0,0,0
		c2.05-2.65,3.66-0.03,4.79,0.82c8,6.02,14.03,13.77,17.25,23.21c1.39,4.06,3.68,5.21,7.29,5.86c12,2.16,24.13,1.88,36.23,2.28
		c1.69,0.06,4.12-1.12,4.91,1.77c7.33,0,14.66,0,21.99,0C423.69,637.58,422.56,634.96,426,633.9z"/>
	<path class="st0" d="M613.44,324.52c-3.38,8.45-6.14,16.83-10.6,24.44c-0.36,0.89-0.55,1.93-1.12,2.66
		c-3.75,4.75-4.41,9.81-1.72,15.26c7.9,18.46,12.77,37.39,9.35,57.7c-0.41,2.44-0.44,4.94-0.65,7.41c0,0,0,0,0,0
		c2.93,2.86,3.6,6.87,5.18,10.41c4.31,9.65,10.21,18.4,15.7,27.36c3.04,4.96,5.73,10.33,10.35,14.21c0-26.99,0-53.98,0-80.98
		c-8.78-18.64-15.02-38.2-20.95-57.87C616.97,338.47,615.36,331.7,613.44,324.52z"/>
	<path class="st0" d="M167.85,569.56c-2.85-2.75-5.72-5.53-7.61-9.09c0,0-0.13-0.03-0.13-0.03c0,0,0,0,0,0
		c-2.44-2.54-5.52-4.63-6.04-8.53c-6.04-4.8-9.16-11.74-13-18.11c-2.98-4.95-5.02-10.39-6.86-15.87c-0.38-0.31-0.76-0.61-1.14-0.92
		c0.54,8.44,3.17,16.5,4.51,24.8c2.19,13.54,4.6,26.95,4.59,40.8c-0.01,19.24-0.79,38.36-4.12,57.33c15.33,0,30.66,0,45.99,0
		c-2.16-21.44-5.45-42.66-11.91-63.3C171.25,573.81,169.94,571.57,167.85,569.56z"/>
	<path class="st0" d="M249.91,610.21c-0.04-1.66,0.8-3.8-1.82-4.47c0,0,0,0,0,0c-18.71-3.85-37.2-8.46-54.45-16.96
		c-6.55-3.23-13.09-6.57-17.47-12.8c-0.35,0.97-3.64-2.43-2.21,1.71c6.97,20.15,9.85,41.13,12.08,62.22c20.99,0,41.99,0,62.98,0
		C250.21,630.04,250.14,620.13,249.91,610.21z"/>
	<path class="st0" d="M344.95,623.87C344.95,623.87,344.95,623.87,344.95,623.87c1.8-2.27,1.6-4.32-0.4-6.43
		c-4-4.22-7.13-9.41-13.04-11.46c0,0,0,0,0,0c0,0,0,0,0,0c-0.83,0.63-1.66,1.38-2.51,0.02c-14.37,0.96-28.72,2.51-43.15,2.28
		c-7.6-0.12-15.19-0.37-22.78-0.55c0,0,0,0,0,0c0,0,0,0,0,0c-3.89,0.61-8.95-2.79-11.24,0.16c-1.77,2.28,0.23,7.31,0.14,11.11
		c-0.16,6.98-0.61,13.95-0.94,20.93c29.66,0,59.32,0,88.98,0C340.54,634.23,342.2,628.88,344.95,623.87L344.95,623.87z"/>
	<path class="st0" d="M264.16,606.77c-0.01,0.04-0.02,0.08-0.03,0.12c0.04-0.03,0.09-0.07,0.13-0.1
		C264.23,606.78,264.2,606.78,264.16,606.77z"/>
	<path class="st0" d="M477.89,620.4c0.01,0.02,0.02,0.03,0.03,0.05C477.91,620.43,477.91,620.42,477.89,620.4
		c-0.26-0.15-0.52-0.3-0.78-0.45c-4.99-5.56-8.6-12.25-14.14-17.35c-0.79-0.73-1.89-2.73-2.13,0.33c0,0,0,0,0,0c0,0,0,0,0,0
		c0.42,2.15,0.6,4.31-0.81,6.18c-8.84,11.69-19.73,20.57-33.99,24.84c-0.17,0.65-1.71,1.22,0.08,2.01c1.73,0.76,3.18,2.04,3.86,3.95
		c15.33,0,30.66,0,45.99,0c0.59-2.02,1.18-4.05,1.78-6.07C479.05,629.38,480.22,624.91,477.89,620.4z"/>
	<path class="st0" d="M490.03,627.79c-8.26-2.1-8.26-2.1-10.46,5.99c-0.55,2.04-1.08,4.09-1.61,6.14c18.33,0,36.66,0,54.99,0
		c-2.73-0.93-5.46-1.87-8.2-2.8C513.18,634.01,501.61,630.9,490.03,627.79z"/>
	<path class="st0" d="M615.12,323.56c-0.66-2.39-0.16-4.54,0.41-6.82c1.93-7.72,4.18-15.39,4.53-23.42c0,0,0,0,0,0c0,0,0,0,0,0
		c-0.68-1.67,0.56-3.73-1.01-5.22c-0.02,0.01-0.04,0.03-0.06,0.04c-2.34,20.86-8.18,40.7-17.23,59.62c0,0,0,0,0,0c0,0,0,0,0,0
		c0.36,0.4,0.71,0.8,1.07,1.2c4.46-7.61,7.22-15.99,10.6-24.44c1.91,7.17,3.53,13.95,5.53,20.6c5.92,19.67,12.16,39.23,20.95,57.87
		c0-2,0-4,0-6c-0.48-0.84-1.06-1.64-1.42-2.53C629.12,371.36,621.71,347.6,615.12,323.56z"/>
	<path class="st0" d="M526.69,540.02l-0.36,0.01l-0.35-0.08l0,0c-0.44,2.11,0.67,3.9,1.35,5.72c6.55,17.64,15.2,34.25,24.78,50.4
		c9.25,15.6,20.51,29.74,31.82,43.85c0.67,0,1.33,0,2,0c-0.54-0.82-0.99-1.72-1.62-2.46C559.44,608.33,540.71,575.57,526.69,540.02z
		"/>
	<path class="st0" d="M397.07,638.15c-12.1-0.4-24.23-0.12-36.23-2.28c-3.61-0.65-5.9-1.8-7.29-5.86
		c-3.22-9.44-9.25-17.19-17.25-23.21c-1.13-0.85-2.73-3.48-4.79-0.82c0,0,0,0,0,0c5.91,2.04,9.04,7.23,13.04,11.46
		c2,2.11,2.21,4.17,0.4,6.43c0,0,0,0,0,0c3.32,0.87,1.93,3.33,1.81,5.36c1.17,5.39,5.96,6.05,10.02,7.59
		c4.57,1.74,9.7,1.01,14.21,3.1c4,0,8,0,12,0c6-1.79,12-1.38,18,0c0.33,0,0.67,0,1,0C401.19,637.04,398.76,638.21,397.07,638.15z
		 M348.51,623.07c2.37,3.47,3.52,6.48,4.68,9.67C348.19,631.54,347.58,630.34,348.51,623.07z"/>
	<path class="st0" d="M96.04,562.7c-1.49,0.62-1.14,1.88-0.89,2.96c1.6,6.95,1.97,14.06,2.65,21.12c1.7,17.67,1.96,35.41,2.26,53.14
		c0.67,0,1.33,0,2,0c-0.4-23.35-0.96-46.68-4.04-69.87C97.69,567.53,98.03,564.79,96.04,562.7z"/>
	<path class="st0" d="M176.17,575.98c-0.03-0.04-0.06-0.07-0.08-0.11c0.04,0.01,0.07,0.03,0.1,0.04
		c-5.05-5.42-9.9-11.05-15.95-15.45l0,0c1.89,3.57,4.76,6.34,7.61,9.09c2.08,2.01,3.39,4.25,4.27,7.07
		c6.46,20.64,9.75,41.86,11.91,63.3c0.67,0,1.33,0,2,0c-2.23-21.09-5.11-42.07-12.08-62.22
		C172.53,573.55,175.83,576.95,176.17,575.98z"/>
	<path class="st0" d="M346.76,629.23c-0.03-0.07-0.07-0.14-0.1-0.2c-0.32-0.65-0.65-1.34-1.22-2.49c-1.56,4.71-3,9.05-4.44,13.39
		c10,0,19.99,0,29.99,0c-4.51-2.09-9.64-1.36-14.21-3.1C352.72,635.28,347.93,634.62,346.76,629.23z"/>
	<path class="st0" d="M251.83,607.88c2.29-2.94,7.35,0.45,11.24-0.16c0,0,0,0,0,0c0.36-0.28,0.71-0.56,1.07-0.84
		c0.01-0.04,0.02-0.08,0.03-0.12c-4.58-0.65-9.15-1.3-13.73-1.96c0,0,0,0-0.01,0c0,0,0,0,0,0c-0.78,0.31-1.56,0.62-2.34,0.93
		c2.61,0.66,1.78,2.8,1.82,4.47c0.23,9.92,0.3,19.83-0.88,29.71c0.67,0,1.33,0,2,0c0.33-6.98,0.79-13.95,0.94-20.93
		C252.05,615.19,250.05,610.16,251.83,607.88z"/>
	<path class="st0" d="M490.03,627.79c0.35-0.33,0.7-0.65,1.04-0.98c0,0,0,0,0,0c-4.14-2.62-10.25-1.2-13.15-6.36
		c-0.01-0.02-0.02-0.03-0.03-0.05c2.32,4.51,1.16,8.98-0.15,13.45c-0.59,2.02-1.18,4.05-1.78,6.07c0.67,0,1.33,0,2,0
		c0.54-2.05,1.06-4.1,1.61-6.14C481.77,625.7,481.78,625.7,490.03,627.79z"/>
	<path class="st0" d="M637.42,605.09c-3.51-5.75-6.94-11.53-10.4-17.31c-0.05,0.57-0.1,1.14-0.15,1.71c0,0,0,0,0,0c0,0,0,0,0,0
		c3.58,7.61,7.86,14.8,13.05,21.43c0-1,0-2,0-3C638.36,607.63,638.07,606.16,637.42,605.09z"/>
	<path class="st0" d="M346.66,629.03c0.03,0.07,0.07,0.14,0.1,0.2c0.12-2.03,1.51-4.49-1.81-5.36h0
		c-2.75,5.01-4.41,10.36-4.95,16.05c0.33,0,0.67,0,1,0c1.44-4.34,2.88-8.68,4.44-13.39C346,627.68,346.34,628.38,346.66,629.03z"/>
	<path class="st0" d="M426.11,635.98c-1.79-0.79-0.25-1.36-0.08-2.01c-0.03,0.01-0.05,0.02-0.08,0.03c0.02-0.03,0.04-0.05,0.06-0.08
		c-3.45,1.05-2.32,3.68-2.03,6.02c2,0,4,0,6,0C429.29,638.01,427.84,636.74,426.11,635.98z"/>
	<path class="st0" d="M382.99,639.92c6,0,12,0,18,0C394.99,638.54,388.99,638.13,382.99,639.92z"/>
	<path class="st0" d="M524.75,637.12c2.73,0.93,5.46,1.87,8.2,2.8c1.33,0,2.67,0,4,0c-3.28-2.42-7.23-2.97-11.03-3.95
		C525.53,636.35,525.14,636.74,524.75,637.12z"/>
	<path class="st0" d="M50.97,462.14c0,0,0-0.01,0-0.01c-2.71-6.93-4-14.21-5.18-21.68c5.37,9.18,13.05,16.19,20.5,23.4c0,0,0,0,0,0
		h0c20.45,17.05,43.98,27.85,69.66,34.27c4.37,0.89,8.75,1.78,13.12,2.67c4.12-0.33,0.59-1.92,0.21-2.29
		c-7.52-7.25-13.94-15.37-19.4-24.24c-2.07-3.35-3.89-6.86-5.82-10.29c-6.37-11.88-12.09-24.04-16.04-36.96
		c-2.15-5.1-4.07-10.28-5.12-15.74c0,0,0,0,0,0c-6.15-17.46-9.66-35.53-11.77-53.84c-4.8-41.83-1.88-83.29,6.88-124.38
		c1.04-4.89,1.45-10.21,6.41-14.99c-3.82,12.15-6.29,23.33-7.53,34.75c0.05,10.97,0,21.95,0.17,32.92
		c0.33,21.7,1.68,43.32,4.78,64.84c0.84,5.85,0.14,11.92,3.05,17.4c0,0,0,0,0,0c0.12-0.66,0.24-1.33,0.36-1.99
		c4.26-12.5,8.02-25.17,12.75-37.51c8.13-21.19,16.9-42.13,25.85-62.98c1.1-2.55,1.44-4.96,1.02-7.69c-0.52-3.43-0.68-6.92-1-10.38
		c0,0,0,0,0,0c-1.12-3.41-0.97-6.9-0.74-10.41c0-5.31,0-10.62,0-15.93c-0.19-11.17,2-22.06,4.02-32.96c0.26-2.59,0.74-5.1,2.78-7.84
		c0.19,3.62-0.52,6.37-1.63,9.05c-3.29,18.44-4.36,37.02-3.32,55.72c1.07,8.22,2.13,16.44,3.2,24.66c0.14,0.41,0.26,0.82,0.28,1.19
		c3.51,15.31,7.63,30.44,13.67,44.99c2,3.52,4.02,7.03,5.02,11c1.27,2.09,2.55,4.19,4.25,6.99c0.11-0.02,0.22-0.02,0.34-0.07
		c0.16-0.06,0.3-0.13,0.42-0.21c-0.1-1.94-0.16-3.21-0.22-4.47c-1.59-3.88-1.65-8.05-1.82-12.1c-0.55-13.02-0.94-26.05,0.96-39.02
		c0-0.33-0.01-0.66-0.01-1v0c0.2-9.09,1.57-18.04,3.03-26.98c-0.13-1.51-0.08-3,0.68-4.38h0c1.29-9.71,2.97-19.34,5.74-28.76
		c0.17-0.9,0.33-1.78,0.5-2.69c-0.14,0.8-0.28,1.6-0.42,2.39c0.44-1.47,0.9-2.94,1.39-4.41c-1.91,11.52-3.83,23.03-5.74,34.55
		c7.82-10.87,12.11-23.39,16.64-35.79c0.56-1.53,1.23-3.03,1.87-4.53c0.06-0.16,0.13-0.32,0.21-0.49
		c3.4-11.21,7.79-22.12,10.3-33.61c0.94-8.83,1.76-17.67,2.85-26.48c1.24-9.98,2.89-19.9,2.99-30c0.01-1.27,0.61-2.53,0.94-3.8
		c0,0,0,0,0,0c0,0,0,0,0,0c-1.61-11-4.24-21.89-3.7-33.13c2.8,19.93,6.39,39.69,12.78,58.81c12.4,37.16,30.53,70.83,60.7,96.84
		c14.17,12.22,29.59,22.6,47.06,29.64c4.55,1.41,9.1,2.83,13.65,4.23c1.18,0.37,2.42,1.19,3.39-0.38
		c-22.5-13.46-39.21-32.6-53.25-54.34c-1.62-2.51-3.14-5.08-4.7-7.62c-2.75-3.35-4.72-7.14-6.43-11.09c0,0,0,0,0,0
		c-2-2.09-2.42-4.81-3.8-8.54c3,3.18,4.09,5.91,5.16,8.65c2.05,3.3,4.11,6.59,6.16,9.89c23.05,29.99,52.58,50.21,89.45,59.41
		c9.03,2.25,18.29,2.95,27.42,4.55c3-0.42,6.17,0.27,9.2-1.21c-1.5-2-4.37-2.17-5.07-4.67l0,0c-1.02-0.5-2.04-0.99-3.06-1.49
		c0,0,0,0,0,0c-9.15-7.06-16.83-15.56-23.98-24.57c-17.83-21.04-32.71-44.07-45.97-68.19c-5.12-9.32-10.25-18.64-14.27-28.51
		c-3.76-6.74-6.35-13.93-8.31-21.39c-0.18-0.53-0.36-1.07-0.53-1.59c0.14,0.39,0.28,0.8,0.42,1.19c-0.27-1.03-0.52-2.05-0.76-3.09
		c3.4,7.9,6.79,15.81,10.19,23.71l0,0h0c19.75,38.22,49.69,67.06,84.35,91.54c8.56,6.05,17.71,11.12,26.78,16.34l0,0
		c9.22,4.29,18.45,8.55,27.99,12.08l0,0v0c14.58,4.67,29.58,6.62,44.75,7.48c1.8-0.34,3.63,0,5.46,0.27c1.25,0,2.5,0,4.58,0
		c0.03-0.09,0.08-0.16,0.11-0.26c0.02-0.1,0.02-0.18,0.03-0.28c-12.68-7.44-23.45-15.51-32.95-25.2
		c-9.31-8.1-17.44-17.3-24.96-27.06c-8-9.98-16.01-19.96-24.01-29.95c-4.44-4.73-7.85-10.14-11.44-15.44
		c0.38-0.27,0.76-0.55,1.14-0.82c3.77,5.07,7.55,10.14,11.32,15.21c16.69,21.04,35.59,39.83,57.16,55.88
		c3.87,2.41,7.75,4.82,11.62,7.23c2.48-0.61,4.51,0.54,6.62,1.58c8.06,3.97,16.38,7.27,25.07,9.59c0.93,0.25,1.9,1.05,2.77,0.18
		c0.94-0.94-0.09-1.83-0.38-2.71c-6.9-21.32-15.87-41.81-25.3-62.09c-3.69-7.93-9.06-15.07-12.98-22.92
		c-4.29-8.59-10.67-15.89-14.6-24.65h0c0,0,0,0,0,0c-3.44-5.17-8.07-9.31-12.01-14.05c-3.1-3.08-6.2-6.16-9.3-9.24
		c4.53,1.53,7.55,4.72,10.32,8.2c35.82,37.1,62.24,80.14,80.96,128.05c2.29,5.85,4.85,11.63,6.13,17.84
		c4.26,11.68,7.68,23.59,10.09,35.79c0.09,0.22,0.14,0.43,0.18,0.63c3.34,10.95,5.21,22.19,6.59,33.52
		c0.06,0.86,0.12,1.73,0.18,2.59c2.19,10.59,2.41,21.25,0.72,33.16c0.08,0.05,0.15,0.1,0.24,0.14c8.3-11.48,14.04-23.06,20.73-34.04
		c0,0,0,0,0,0c9.04-18.92,14.89-38.76,17.23-59.62c0-0.03,0.01-0.06,0.01-0.09c0-3.42,0-6.84,0-10.26
		c7.53,19.86,11.45,40.47,13.98,61.38c0.09,0.5,0.18,1,0.26,1.51c1.76-6.63,2.12-29.51,1.14-39.23c-1.5-14.88-4.25-29.52-7.65-44.06
		c-0.05-0.14-0.09-0.26-0.12-0.38c-6.76-22.14-15.64-43.37-27.35-63.39c-12.3-21.03-27.27-40.06-43.33-58.28
		c-0.65-0.74-1.2-1.56-1.79-2.34c-18.9-19.15-37.52-38.59-58.65-55.39c-31.23-24.84-65.8-42.97-104.65-52.65
		c-0.96-0.24-1.9-0.61-2.84-0.92c-12.91-2.53-25.81-5.05-38.72-7.58c-0.19,0.01-0.41-0.03-0.69-0.13
		c-16.83-1.83-33.71-1.78-50.6-1.37c-2.59,0.1-5.18,0.21-7.78,0.31c-3.63,0.73-7.26,1.45-10.89,2.18
		c-8.46,2.53-16.93,5.06-25.39,7.58C213.42,29.56,178,46.98,144.18,68.5c-13.47,8.57-26.46,17.8-39.03,27.62
		c-16.17,14-30.01,29.98-41.98,47.73c-19.46,28.87-34.82,59.56-43.4,93.44c-3.75,14.82-6.73,29.78-8.69,44.95
		c-0.16,1.26,0.21,2.71-0.97,3.73v0c-1.01,2.26-1.18,4.65-1.03,7.08c0,0,0,0,0,0c0,0,0,0,0,0c0.77,3.02,0.06,6-0.18,9
		c-0.09,6.04,0.33,12.1-0.55,18.12c-0.06,0.46-0.13,0.92-0.21,1.39c0.61,4.97,0.57,9.94,0,14.92c0,0,0,0,0,0c0,0,0,0,0,0
		c0,0,0,0,0,0.01c0.11,0.39,0.19,0.79,0.25,1.18c0.72,3.74,0.46,7.54,0.51,11.32c0.68,8.35,1.35,16.7,2.03,25.05
		c2.51,16.52,6.46,32.71,11.35,48.68c5.78,14.6,11.32,29.29,18.85,43.13c5.39,9.9,11.29,19.46,17.63,28.77
		c0.99,1.45,2.62,2.66,2.35,4.76c0,0,0,0,0,0c0,0,0,0,0,0c3.06,2.65,2.73,7.76,6.95,9.56c0,0,0,0,0,0
		c-0.01-0.99-0.03-1.98-0.04-2.96C60.59,492.03,55.03,477.38,50.97,462.14z M312.76,113.38c-2.4-1.68-2.23-3.63-2.84-6.18
		C312.39,109.03,312.44,110.88,312.76,113.38z M187.26,186.02c-1.52,8.11-3.04,16.23-4.56,24.34c-0.51-0.09-1.02-0.19-1.54-0.28
		C182.08,201.86,184.61,193.93,187.26,186.02z"/>
	<path class="st0" d="M10.93,374.03c-0.16,0.19-0.24,0.41-0.28,0.65C10.74,374.46,10.84,374.25,10.93,374.03z"/>
	<path class="st0" d="M388.02,24.02c0.95,0.31,1.88,0.68,2.84,0.92c38.84,9.68,73.41,27.81,104.65,52.65
		c21.13,16.81,39.75,36.24,58.65,55.39c0.27-0.33,0.55-0.65,0.82-0.98c-1.73-2-3.41-4.06-5.21-6
		c-28.97-31.23-60.05-59.86-98.13-79.89c-19.78-10.4-40.45-18.41-62.32-23.21c-0.18-0.06-0.33-0.1-0.46-0.12
		c0.15,0.04,0.31,0.08,0.46,0.12C388.88,23.28,388.45,23.65,388.02,24.02z"/>
	<path class="st0" d="M19.77,237.29c8.58-33.89,23.94-64.58,43.4-93.44c11.97-17.75,25.81-33.73,41.98-47.73
		c-0.36-0.35-0.73-0.69-1.09-1.04c-14.94,11.65-26.83,25.98-37.9,41.3c-30.08,41.63-49.1,87.59-55.87,138.52
		c-0.48,3.59-2.47,7.35-0.19,11.07l0,0c1.18-1.02,0.81-2.47,0.97-3.73C13.04,267.07,16.01,252.11,19.77,237.29z"/>
	<path class="st0" d="M144.18,68.5C178,46.98,213.42,29.56,253.95,25c-0.7-0.36-1.4-0.72-2.1-1.08c0,0,0,0,0,0c0,0,0,0,0,0
		c-6.16,0.23-12.22,1.31-18.18,2.73c-26.15,6.23-50.99,15.54-73.9,30.01c-19.11,12.07-38.58,23.52-55.71,38.42
		c0.36,0.35,0.73,0.69,1.09,1.04C117.73,86.29,130.72,77.07,144.18,68.5z"/>
	<path class="st0" d="M135.26,516.53L135.26,516.53c-2.12-5.97-4.24-11.94-6.52-18.36c2.44,0.36,4.31,0.64,6.18,0.92c0,0,0,0,0,0
		c0,0,0,0,0,0c0.34-0.32,0.68-0.65,1.03-0.97c-25.68-6.43-49.21-17.23-69.66-34.27h0c-0.6,0.11-1.19,0.21-1.79,0.32
		c4.3,4.99,10.35,7.93,12.75,15.19c8.15,24.65,12.59,50.04,16.72,75.53c0.29,1.78,0.09,3.69,2.13,4.63
		c-3.09-28.64-9.11-56.65-18.61-84.58c-0.01-0.04-0.03-0.08-0.04-0.13c0.04,0.02,0.08,0.05,0.11,0.07
		c15.13,9.59,30.42,17.1,46.97,21.77c2.04,0.58,2.36,1.91,2.88,3.5c1.84,5.63,3.76,11.22,5.65,16.83c0,0,0,0,0,0
		c0.38,0.31,0.76,0.61,1.14,0.92c0,0,0,0,0,0C134.56,517.45,134.91,516.99,135.26,516.53z"/>
	<path class="st0" d="M626.63,257c0.03,0.11,0.06,0.24,0.12,0.38c3.41,14.54,6.15,29.18,7.65,44.06c0.98,9.72,0.61,32.6-1.14,39.23
		c-0.02,0.07-0.04,0.15-0.05,0.21c-0.07-0.57-0.14-1.15-0.21-1.72c-2.54-20.91-6.46-41.52-13.98-61.38c0,3.42,0,6.84,0,10.26
		c0.02,0.01,0.03,0.03,0.04,0.05c1.57,1.49,0.33,3.55,1.01,5.22c0,0,0,0,0,0c0.83-0.7,0.04-2.38,1.58-2.69
		c2.57,9.48,4.89,18.99,6.56,28.64c1.64,9.45,3.12,18.92,4.68,28.38c0.46-0.06,0.92-0.11,1.38-0.17c5-30.92,2.24-61.36-6.46-91.41
		c-0.35,0.44-0.71,0.88-1.06,1.33C626.71,257.26,626.67,257.13,626.63,257z"/>
	<path class="st0" d="M555.94,135.33c16.07,18.22,31.03,37.25,43.33,58.28c11.71,20.02,20.59,41.25,27.35,63.39
		c0.04,0.13,0.08,0.25,0.12,0.38c0.35-0.44,0.71-0.88,1.06-1.33c-2.31-6.9-4.47-13.86-6.94-20.7
		c-14.25-39.35-37.71-72.86-65.88-103.35c-0.27,0.33-0.55,0.65-0.82,0.98C554.75,133.77,555.3,134.59,555.94,135.33z"/>
	<path class="st0" d="M58.76,494.61c-6.34-9.31-12.24-18.87-17.63-28.77C33.6,452,28.05,437.31,22.28,422.71
		c-0.35,0.41-0.71,0.82-1.06,1.23c5.55,17.79,13.65,34.45,22.94,50.52c5.02,8.7,9.95,17.53,16.96,24.9c0,0,0,0,0,0
		C61.38,497.26,59.75,496.05,58.76,494.61z"/>
	<path class="st0" d="M10.93,374.03c-0.68-8.35-1.35-16.7-2.03-25.05c-1.7-4.08-0.47-8.34-0.76-12.51c0,0,0,0,0,0
		c0.57-4.97,0.61-9.94,0-14.92c0.35-6.5-1.03-13.06,0.76-19.5c0.23-3,0.95-5.99,0.18-9c0,0,0,0,0,0
		c-3.25,5.83-1.74,12.21-2.09,18.37c0,11.05,0,22.1,0,33.16c0,0,0,0.01,0,0.01c0.68,10.61,0.76,21.28,2.94,31.76
		c0.24-0.56,0.49-1.11,0.73-1.67C10.69,374.44,10.77,374.22,10.93,374.03z"/>
	<path class="st0" d="M298.01,14.1c0,0.28,0,0.55,0,0.83c16.89-0.41,33.77-0.46,50.6,1.37c0.45-0.34,0.9-0.69,1.34-1.03
		c-16.49-2.77-33.1-2.36-49.72-2C299.5,13.54,298.75,13.82,298.01,14.1L298.01,14.1z"/>
	<path class="st0" d="M349.3,16.43c-0.23-0.04-0.46-0.09-0.69-0.13C348.89,16.4,349.11,16.44,349.3,16.43z"/>
	<path class="st0" d="M50.97,462.13c0,0,0,0.01,0,0.01c4.06,15.24,9.62,29.9,17.05,43.82c0.52-0.04,1.04-0.08,1.57-0.12v0l0,0
		c-6.87-14.55-12.27-29.68-17.61-44.84h0c-0.34,0.38-0.67,0.76-1.01,1.14C50.97,462.13,50.97,462.13,50.97,462.13z"/>
	<path class="st0" d="M66.29,463.85c-7.45-7.21-15.14-14.22-20.5-23.4c1.18,7.47,2.47,14.74,5.18,21.68c0,0,0,0.01,0,0.01
		c0.34-0.38,0.67-0.76,1.01-1.14c-1.16-4.28-2.32-8.58-3.75-13.86c-0.04-0.15-0.08-0.3-0.12-0.45c0.09,0.13,0.19,0.25,0.28,0.38
		c4.98,7.02,10.05,12.54,16.11,17.1C65.1,464.06,65.7,463.96,66.29,463.85C66.29,463.85,66.29,463.85,66.29,463.85z"/>
	<path class="st0" d="M10.93,374.03c-0.09,0.22-0.19,0.43-0.28,0.65c-0.24,0.56-0.49,1.11-0.73,1.67
		c1.85,16.32,5.93,32.11,11.3,47.59c0.35-0.41,0.71-0.82,1.06-1.23C17.39,406.74,13.45,390.55,10.93,374.03z"/>
	<path class="st0" d="M349.3,16.43c12.91,2.53,25.81,5.05,38.72,7.58c0.43-0.37,0.86-0.74,1.3-1.11c-0.15-0.04-0.31-0.08-0.46-0.12
		c-12.8-3.34-25.74-5.99-38.89-7.52c-0.45,0.34-0.9,0.69-1.34,1.03C348.84,16.34,349.07,16.39,349.3,16.43z"/>
	<path class="st0" d="M253.95,25c8.46-2.53,16.93-5.06,25.39-7.58c-0.43-0.4-0.85-0.79-1.28-1.19c-8.74,2.57-17.48,5.13-26.22,7.7
		c0,0,0,0,0,0C252.55,24.28,253.25,24.64,253.95,25z"/>
	<path class="st0" d="M6.98,344.59c0,0,0-0.01,0-0.01c0-11.05,0-22.11,0-33.16C5.77,322.48,5.81,333.54,6.98,344.59z"/>
	<path class="st0" d="M68.03,505.96c0.01,0.99,0.03,1.98,0.04,2.96c0,0,0,0,0,0c2.15,2.4,4.3,4.79,6.44,7.19
		c0.26-0.22,0.52-0.44,0.78-0.65c-1.9-3.21-3.8-6.42-5.7-9.62v0C69.07,505.88,68.55,505.92,68.03,505.96z"/>
	<path class="st0" d="M290.23,15.24L290.23,15.24c-0.59-0.26-1.18-0.51-1.77-0.77c-0.14-0.04-0.27-0.08-0.39-0.17
		c-3.5-0.21-6.68,1.24-10.01,1.92c0.43,0.4,0.85,0.79,1.28,1.19C282.97,16.69,286.6,15.97,290.23,15.24z"/>
	<path class="st0" d="M300.24,13.26c-3.76-0.1-7.57-1.05-11.21,0.67c2.99,0.06,5.99,0.11,8.98,0.17
		C298.75,13.82,299.5,13.54,300.24,13.26z"/>
	<path class="st0" d="M290.23,15.24L290.23,15.24c2.59-0.1,5.18-0.21,7.78-0.31c0-0.28,0-0.55,0-0.83h0
		c-2.99-0.06-5.99-0.11-8.98-0.17c-0.32,0.12-0.63,0.25-0.95,0.37c0.12,0.08,0.25,0.13,0.39,0.17
		C289.06,14.73,289.64,14.98,290.23,15.24z"/>
	<path class="st0" d="M627.03,587.79c-3.48-6.78-7.03-13.53-10.42-20.35c-12.87-25.92-22.53-53.12-31.93-80.42l-0.41,0.01
		c0,0-0.41-0.04-0.41-0.04h0l0,0c0.12,0.82,0.12,1.67,0.36,2.44c6.13,19.67,12.94,39.09,21.29,57.94
		c6.38,14.42,12.79,28.81,21.36,42.12c0,0,0,0,0,0C626.93,588.93,626.98,588.36,627.03,587.79z"/>
	<path class="st0" d="M584.27,487.03l0.41-0.01c-1.36-4.57,2.94-6.53,4.58-9.69c3.05-5.88,8.35-10.53,9.59-17.42
		c-0.05-0.01-0.11-0.02-0.16-0.03c-6.27,9.89-12.62,19.74-19.86,28.97c-12.09,15.42-26.31,28.58-42.54,39.57
		c-2.88,1.95-5.69,3.99-8.53,5.99c0.06,0.46,0.11,0.92,0.17,1.38c20.2-12.7,38.45-27.59,52.88-46.8c0.78-1.04,1.38-2.34,3.05-2.01h0
		C583.87,486.99,584.27,487.03,584.27,487.03z"/>
	<path class="st0" d="M476.02,563.16L476.02,563.16L476.02,563.16c0.35,0.29,0.69,0.58,1.04,0.87c0,0,0,0,0,0c0,0,0,0,0,0
		c15.54-6.74,30.04-15.42,44.55-24.06c1.62-0.97,2.89-1.98,4.37-0.02h0l0.35,0.08l0.36-0.01c-1.03-1.83-0.61-3.24,1.24-4.23v0
		c-0.06-0.46-0.11-0.92-0.17-1.38C510.96,544.8,493.77,554.49,476.02,563.16z"/>
	<path class="st0" d="M453.76,587.08C453.76,587.08,453.76,587.08,453.76,587.08C453.76,587.08,453.76,587.08,453.76,587.08
		c0.25,6.42,0.94,12.77,3.2,18.85c0.29,0.01,0.57,0.01,0.86,0.02c-0.39-2.18-0.78-4.37-1.22-6.87c2.27,0.78,2.42,2.69,3.47,3.85
		c0.26,0,0.51,0,0.77,0c0,0,0,0,0,0c0.25-3.06,1.35-1.06,2.13-0.33c5.55,5.1,9.16,11.79,14.14,17.35
		c-2.51-8.64-8.06-15.61-15.17-20.15c-6.41-4.1-6.67-9.26-6.89-15.26c-0.04-1.16-0.15-2.31-0.23-3.47
		C453.06,582.83,454.4,585.13,453.76,587.08z"/>
	<path class="st0" d="M524.75,637.12c0.39-0.38,0.78-0.77,1.17-1.15c-11.54-3.35-23.08-6.67-34.85-9.16c0,0,0,0,0,0
		c-0.35,0.33-0.7,0.65-1.04,0.98C501.61,630.9,513.18,634.01,524.75,637.12z"/>
	<path class="st0" d="M476.02,563.16L476.02,563.16c-7.4,3.55-15.33,6.01-22.17,10.72c0,0,0,0,0,0c-0.75,4.4-1.8,8.79-0.09,13.21
		c0,0,0,0,0,0c0.64-1.95-0.69-4.26,1.07-6.01c-0.77-5.54,2.04-8.34,7.01-10.17c5.21-1.93,10.16-4.55,15.23-6.87c0,0,0,0,0,0
		C476.71,563.74,476.36,563.45,476.02,563.16z"/>
	<path class="st0" d="M599.77,368.44c2.21,9.13,6.13,17.78,7.52,27.14c1.26,8.49,2.81,16.96,0.72,25.54c0,0,0,0,0,0.01
		c-0.82,11.56-3.52,22.7-7.59,33.52c-0.63,1.69-1.12,3.43-1.68,5.15c0,0,0.12,0.1,0.12,0.1c2.06-0.92,2.29-3.08,3.02-4.78
		c3.2-7.43,4.76-15.37,6.82-23.15c0,0,0,0,0,0c0.21-2.47,0.24-4.97,0.65-7.41c3.42-20.3-1.45-39.24-9.35-57.7
		C599.92,367.4,599.84,367.92,599.77,368.44C599.77,368.44,599.77,368.44,599.77,368.44z"/>
	<path class="st0" d="M476.02,563.16L476.02,563.16c17.76-8.67,34.94-18.36,51.74-28.75c2.84-2,5.66-4.04,8.53-5.99
		c16.23-10.99,30.45-24.14,42.54-39.57c7.23-9.23,13.58-19.08,19.86-28.97c0.02-0.02,0.03-0.05,0.05-0.07
		c0.55-1.72,1.04-3.46,1.68-5.15c4.06-10.83,6.76-21.96,7.59-33.52c0,0,0,0,0-0.01c0,0,0,0,0,0.01c-0.71-3.06-2.36-2.34-3.85-0.79
		c-2.06,2.15-3.74,4.67-5.87,6.73c-8.82,8.52-18.49,15.66-29.78,20.88c-8.04,3.72-16.35,5.92-24.71,8.43
		c-3.99,1.2-7.42-0.56-11.24,0c-5.98,0.88-12.15,0.71-18.23,0.54c-12.54-0.35-23.77-4.41-33.97-11.87
		c-6.96-5.09-12.27-11.54-16.14-18.92c-5.79-11.03-6.83-22.93-4.15-35.17c1.4-6.4,5.09-11.79,7.3-17.81
		c1.6-4.36,4.69-6.71,9.24-7.14c1.35-0.13,2.23-0.54,2.36-1.99c0,0,0,0,0,0c0,0,0,0,0,0c-6.91-0.33-13.83-0.62-19.74-4.92
		c0,0,0,0,0,0c-0.77-0.69-1.54-1.38-2.31-2.07c-6.79,3.39-11.1-1.75-14.95-5.35c-8.93-8.35-16.14-18.16-20.58-29.77
		c-4.77-12.5-5.36-25.22-2.03-38.12c0.3-1.17-0.09-1.86-0.39-2.75l0,0c-5.97,4.58-10.04,10.72-14.36,18.3
		c-1.65-8.27,1.26-14.82,2.45-21.81c-0.09-0.06-0.18-0.13-0.3-0.18c-0.14-0.07-0.29-0.13-0.43-0.18c-2.7,1.58-4.27,4.04-6.4,5.83
		c0,0,0,0,0,0c0,0,0,0,0,0c-0.64,1.76-1.85,3.02-3.83,4.2c0.55-2.52,1.27-4.54,2.86-6.19c1.52-3.6,3.35-7.03,5.86-10.06
		c-1.12-1.83-3.08-1.77-4.76-1.74c-6.44,0.11-12.63-1.61-18.96-2.28c0,0,0,0,0,0c0,0,0,0,0,0c-10.62-0.38-20.99-2.34-30.8-6.34
		c-9.91-4.04-19.44-8.97-28.27-15.12c-0.58-0.41-1.14-1.41-2.05-0.41c9.51,10.14,20.8,18.04,32.62,25.38
		c-0.98,0.93-1.79,0.61-2.59,0.48c-7.78-0.41-15.13-2.5-22.19-5.72c-22.8-8.63-41.66-23.06-58.7-40.09
		c-4.53-4.53-8.75-9.37-13.11-14.06c0,0,0,0,0,0c-6.57-4.21-10.77-10.6-15.32-16.66c-7.88-10.49-13.92-22.04-19.61-34.64
		c-0.01,0-0.02,0-0.03,0c-3.38,6.12-3.9,12.44-6.04,18.19c-6.35,17.06-12.79,34.08-22,49.91c-3.17,5.45-6.34,10.88-9.91,16.06
		c-1.4,2.02-2.69,4.21-5.28,4.98c-0.29,0.4-0.59,0.79-0.88,1.19c-2.76,8.16-4.71,16.41-2.89,25.1c18.3-8.08,37.18-12.14,57.19-8.63
		c-20.52-0.75-40.11,3.17-58.79,11.69c-1.35,14.31-1.94,28.64-0.44,42.98c0.09,0.82,0.06,1.66,1.05,1.99
		c20.68-12.39,42.81-15.54,66.2-10.18c8.87,2.03,16.56,6.47,24.7,12.8c-5.36-0.12-8.97-2.98-13.68-2.72c0,0,0,0,0,0
		c4.75,4.71,8.82,9.39,11.73,14.96c0,0,0,0,0,0v0c2,0.71,2.01,2.64,3.15,4.9c-2.14-0.82-3.35-1.61-4.31-2.84
		c-4.78-2.43-9.19-5.71-14.75-6.3h0c-0.21,2.92,1.77,5.19,3.21,7.08c3.91,5.12,5.86,11.11,8.33,16.81
		c5.12,11.83,5.62,24.19,3.13,36.81c-1.53,7.75-4.05,14.97-9.13,21.11c-0.6,0.72-0.9,2.43-2.55,1.39c-0.4,0.35-0.81,0.7-1.21,1.05
		c0,0,0,0,0,0c-3.36,1.88-4.62,5.83-7.78,7.9c0,0,0,0,0,0c-4.39,5.92-11.34,7.81-17.41,11.07c-0.85,0.46-1.74,0.84-2.61,1.26
		c0,0,0,0,0,0c0,0,0,0,0,0c6-0.1,11.99-0.15,17.99-0.31c6.71-0.18,13.22,0.75,19.54,3.01c1.24,0.44,2.57,0.96,3.84,0.93
		c4.95-0.14,8.16,2.07,11.99,5.39c6.18,5.35,10.16,11.72,13.58,18.74c2.62,5.38,3.48,10.83,3.33,17.12
		c-0.5,20.34-11.63,34.29-26.36,45.8c-5.52,4.32-12.22,7.64-18.73,10.94c-9.73,4.93-20.32,5.18-30.26,8.47
		c-8.37,2.77-17.74-0.43-26.67-0.77c-13.19-0.5-21.91-9.2-30.85-17.02c-5.43-4.75-7.26-11.71-5.73-19.1
		c0.66-3.18,0.37-6.27-0.7-9.31c-0.66-0.1-1.31-0.2-1.97-0.3c-4.8-0.5-9.61-0.93-14.14-2.77c0,0,0,0,0,0
		c-1.87-0.28-3.74-0.56-6.18-0.92c2.28,6.42,4.4,12.39,6.52,18.36v0l0,0c4.17,12.92,11.53,24.14,18.84,35.38
		c2.52,2.47,5.23,4.81,6.01,8.52c0,0,0,0,0,0c0,0,0,0,0,0c0,0,0.13,0.03,0.13,0.03l0,0c6.05,4.4,10.89,10.03,15.95,15.45
		c3.81,1.27,6.37,4.43,9.64,6.52c17.13,10.94,36.5,15.64,55.89,20.3c2.9,0.7,5.8,1.39,8.71,2.08c0,0,0,0,0.01,0
		c4.58,0.65,9.15,1.3,13.73,1.96c0.03,0,0.07,0.01,0.1,0.01c22.26,0.71,44.44-0.52,66.58-2.72c0,0,0,0,0,0c0,0,0,0,0,0
		c14.6-1.73,29.13-3.94,43.57-6.76c27.21-5.32,53.7-13.1,79.43-23.43c0,0,0,0,0,0C460.69,569.17,468.62,566.71,476.02,563.16z
		 M434.9,438.75c-9.17,10.64-21.07,16.72-34.54,19.49c-11.11,2.28-21.57,6.26-32.15,10.11c-11.55,4.2-23.66,4.99-35.85,4.48
		c-2.33-0.1-4.95-0.24-7.12-2.37c15.63,0.56,30.89-0.09,45.2-5.63c11.06-4.28,22.51-6.86,33.78-10.2
		c5.91-1.75,11.52-4.28,16.92-7.26c5.41-2.99,9.85-7.23,14.64-11.6C436.61,437.37,435.52,438.02,434.9,438.75z"/>
	<path class="st0" d="M457.82,605.96L457.82,605.96c-0.29-0.01-0.57-0.02-0.86-0.02c0.42,2.66-0.63,4.65-2.41,6.61
		c-6.74,7.42-14.72,13.15-23.46,17.92c-1.79,0.97-3.95,1.47-5.08,3.43c-0.02,0.03-0.04,0.05-0.06,0.08
		c0.03-0.01,0.05-0.02,0.08-0.03c14.26-4.27,25.15-13.15,33.99-24.84c1.41-1.86,1.23-4.03,0.81-6.18c0,0,0,0,0,0
		c-0.26,0-0.51,0-0.77,0C459.3,603.94,460.86,606.66,457.82,605.96z"/>
	<path class="st0" d="M264.26,606.79c-0.04,0.03-0.09,0.07-0.13,0.1c-0.36,0.28-0.71,0.56-1.07,0.84c0,0,0,0,0,0
		c7.59,0.19,15.19,0.43,22.78,0.55c14.43,0.24,28.78-1.32,43.15-2.28c0.73-0.53,1.78-0.76,1.84-1.94c0,0,0,0,0,0
		C308.7,606.27,286.52,607.49,264.26,606.79z"/>
	<path class="st0" d="M580.73,382.24c0.03-0.2,0.05-0.38,0.07-0.58c1.69-11.91,1.47-22.57-0.72-33.16c-1.99,3-0.13,6.08,0.03,9.05
		c0.51,9.72,0.8,19.38-1.15,29.18c0.03,0.02,0.06,0.04,0.09,0.06c6.64-7.91,11.93-16.6,17.27-25.41c2.24,2.01,1.61,5.15,3.46,7.06
		c0.08-0.52,0.15-1.04,0.23-1.56c-2.68-5.45-2.03-10.51,1.72-15.26c0.57-0.73,0.76-1.76,1.12-2.66c-0.36-0.4-0.71-0.8-1.07-1.2
		c0,0,0,0,0,0c-6.69,10.99-12.43,22.56-20.73,34.04C580.94,381.95,580.83,382.1,580.73,382.24z"/>
	<path class="st0" d="M154.11,551.91c-7.31-11.24-14.68-22.46-18.84-35.38l0,0c-0.35,0.46-0.7,0.92-1.05,1.39c0,0,0,0,0,0
		c1.84,5.49,3.88,10.92,6.86,15.87c3.84,6.37,6.96,13.3,13,18.11c0.52,3.9,3.6,5.99,6.04,8.53c0,0,0,0,0,0
		C159.34,556.72,156.63,554.38,154.11,551.91z"/>
	<path class="st0" d="M185.84,582.43c-3.28-2.09-5.83-5.24-9.64-6.52c-0.03-0.01-0.07-0.03-0.1-0.04c0.03,0.04,0.06,0.07,0.08,0.11
		c4.38,6.23,10.92,9.57,17.47,12.8c17.25,8.5,35.74,13.11,54.45,16.96c0,0,0,0,0,0c0.78-0.31,1.56-0.62,2.34-0.93c0,0,0,0,0,0
		c-2.9-0.69-5.81-1.38-8.71-2.08C222.33,598.07,202.97,593.37,185.84,582.43z"/>
	<path class="st0" d="M353.19,632.74c-1.16-3.19-2.32-6.2-4.68-9.67C347.58,630.34,348.19,631.54,353.19,632.74z"/>
	<path class="st0" d="M607.29,395.59c-1.39-9.37-5.3-18.02-7.52-27.14c0,0,0,0,0,0c-1.85-1.92-1.21-5.06-3.46-7.06
		c-5.34,8.81-10.63,17.5-17.27,25.41c-0.04,0.05-0.08,0.1-0.12,0.15c0.01-0.07,0.02-0.14,0.04-0.21c1.95-9.8,1.66-19.46,1.15-29.18
		c-0.16-2.97-2.02-6.05-0.03-9.05c-0.06-0.86-0.12-1.73-0.18-2.59c-2.3-0.52-1.67-2.54-1.96-4.01c-1.77-9-3.07-18.1-5.98-26.84
		c-2.65,6.6-5.04,13.33-8.99,19.33c-0.99,1.5-1.91,2.81-2.23-0.31c0,0,0,0,0,0c-3.16,8.03-10.34,11.85-17.25,15.51
		c-8.78,4.64-18.42,7.16-28.24,8.75c-0.41,0.07-0.89-0.24-1.33-0.37c-2.89,2.45-6.59,2.85-10.01,3.93c0,0,0,0,0,0c0,0,0,0,0,0
		c-8.28,1.08-16.52,2.52-24.93,2.12c0,0,0,0,0,0c-0.13,1.45-1.02,1.86-2.36,1.99c-4.55,0.43-7.64,2.78-9.24,7.14
		c-2.22,6.02-5.9,11.41-7.3,17.81c-2.68,12.24-1.64,24.14,4.15,35.17c3.87,7.38,9.19,13.83,16.14,18.92
		c10.19,7.47,21.43,11.53,33.97,11.87c6.08,0.17,12.25,0.33,18.23-0.54c3.82-0.56,7.25,1.2,11.24,0c8.36-2.51,16.67-4.71,24.71-8.43
		c11.29-5.23,20.96-12.36,29.78-20.88c2.13-2.06,3.81-4.58,5.87-6.73c1.49-1.56,3.14-2.27,3.85,0.79c0,0,0,0,0-0.01
		C610.09,412.54,608.55,404.08,607.29,395.59z"/>
	<path class="st0" d="M171.95,329.15C171.95,329.15,171.95,329.15,171.95,329.15c0.06,1.26,0.12,2.53,0.22,4.47
		c0.02,0.51,0.05,1.05,0.08,1.66c-0.29-0.48-0.57-0.94-0.84-1.39c-1.7-2.8-2.98-4.89-4.25-6.99c-0.37,0.04-0.73,0.08-1.1,0.11l0,0
		c0,0,0,0,0,0c-17.48,11.77-31.4,26.96-42.56,44.71c-7.18,11.41-12.38,23.81-17.46,36.25c0,0,0,0,0,0l0,0
		c0.25,2.33-2.52,1.78-3.14,3.29c0,0,0,0,0,0c0,0,0,0,0,0c1.05,5.46,2.97,10.64,5.12,15.74c1.65-2.72,1.65-2.72,3.05-1.05v0h0
		c8.69,8.21,18.33,15.09,28.9,20.67c0.94,0.5,2.33,1.97,2.82-0.53c-8.87-15.42-13.22-31.72-5.62-48.67
		c8.08-18.03,20.23-33.41,34.89-46.7c3.5-3.17,7.36-5.93,11.75-7.84c4.12-3.71,9.03-6.03,14.13-8.03c2.76-1.74,5.82-2.58,9.03-2.94
		c0,0,0,0,0,0c3.2-1.58,6.58-2.12,10.11-1.82c0.36,0.04,0.71,0.09,1.07,0.13l0,0v0c5.05-0.29,10.1-0.71,15.08,0.64
		c4.52-0.01,8.76,1.2,12.88,2.95v0h0c5.56,0.58,9.97,3.87,14.75,6.3c0.86-0.42,1.14-1.17,1.16-2.07c0,0,0,0,0,0
		c-2.91-5.56-6.97-10.25-11.73-14.96c0,0,0,0,0,0c0,0,0,0,0,0c4.71-0.25,8.32,2.61,13.68,2.72c-8.14-6.34-15.83-10.77-24.7-12.8
		c-23.39-5.36-45.52-2.21-66.2,10.18h0C171.69,324.99,172.37,327.17,171.95,329.15z"/>
	<path class="st0" d="M506.01,267.92c11.74,4.61,23.51,9.16,33.76,16.77c16.65,12.36,21.99,29.52,20.97,49.39c0,0,0,0,0,0
		c0,0,0,0,0,0c0.32,3.13,1.24,1.82,2.23,0.31c3.95-6,6.34-12.73,8.99-19.33c0.39-1.1,0.78-2.2,1.17-3.3
		c0.06,0.21,0.12,0.42,0.18,0.63c-0.04-0.2-0.1-0.41-0.18-0.63c-2.41-12.2-5.83-24.11-10.09-35.79v0c-0.77-0.37-1.54-0.74-2.31-1.11
		c-10.7-3.27-20.51-8.51-30.33-13.71c-8.5-4.51-16.94-9.15-24.66-14.96h0c-3.87-2.41-7.75-4.82-11.62-7.23
		c-1.26,0.85-1.99,3.35-4.17,1.34c0,0,0,0,0,0l0,0c-1.65-0.17-3.3-0.34-4.95-0.51c-0.03,0.45-0.06,0.9-0.1,1.35
		c9.5,9.69,20.27,17.76,32.95,25.2c0.3,0.18,0.6,0.36,0.9,0.54c-0.37,0-0.71,0-1.04,0c-2.08,0-3.33,0-4.58,0
		c-1.83-0.27-3.66-0.61-5.46-0.27c1.82,0.1,3.63,0.19,5.46,0.27C510.85,267.88,508.21,266.41,506.01,267.92z"/>
	<path class="st0" d="M530.4,261.14c9.81,5.21,19.63,10.44,30.33,13.71c-11.31-34.06-27.11-65.9-47.31-95.55
		c-8.12-11.92-16.43-23.71-26.48-34.15h0c3.94,8.76,10.31,16.06,14.6,24.65c3.92,7.84,9.29,14.98,12.98,22.92
		c9.43,20.27,18.4,40.77,25.3,62.09c0.28,0.88,1.32,1.77,0.38,2.71c-0.87,0.87-1.84,0.07-2.77-0.18
		c-8.69-2.32-17.01-5.62-25.07-9.59c-2.11-1.04-4.14-2.19-6.62-1.58h0C513.45,251.99,521.9,256.63,530.4,261.14z"/>
	<path class="st0" d="M436.86,268.93c2.08-2.47,5.06-3.21,7.95-4.11l0,0c0,0,0,0,0,0c2.61-1.38,5.38-2.25,8.29-2.69c0,0,0,0,0,0
		c0,0,0,0,0,0c3.25-0.44,6.5-0.87,9.75-1.31c0.02-0.57,0.05-1.14,0.07-1.7l0,0c-9.54-3.53-18.77-7.79-27.99-12.08
		c-1.05,0.59-1.39,2.3-3.04,1.93c0,0,0,0,0,0c0,0,0,0,0,0c-0.96,0.37-1.92,0.74-2.89,1.11c-6.88,3.51-12.22,9.25-18.93,13l0,0
		c0.7,2.5,3.57,2.67,5.07,4.67c-3.03,1.48-6.2,0.79-9.2,1.21c-0.04,0.84-0.13,1.66-1.11,1.97v0c-2.52,3.03-4.34,6.46-5.86,10.06
		c0.22,0.72,0.09,1.6,0.98,2c0,0,0,0,0,0c2.13-1.79,3.7-4.24,6.4-5.83c0.28-0.16,0.56-0.33,0.86-0.47
		c-0.04,0.28-0.09,0.55-0.14,0.83c-1.19,7-4.1,13.54-2.45,21.81c4.32-7.58,8.39-13.72,14.36-18.3l0,0
		c4.9-4.89,9.88-9.64,17.01-11.11C436.28,269.6,436.57,269.27,436.86,268.93z"/>
	<path class="st0" d="M422.11,245.91c-13.68-5.52-25.19-14.46-37.08-22.83l-0.02,0.01c-0.41,0.6-1.34,1.09-1.6,0.57
		c-3.32-6.68-10.14-9.61-15.71-15.71c-0.15,0.04-0.31,0.11-0.46,0.22c1.4,6.04,5.49,9.32,6.67,13.96
		c3.36,4.63,6.73,9.25,10.09,13.88c7.36,7.82,14.72,15.65,22.09,23.45c0.59,0.62,1.13,1.2,0.92,2.13c0,0,0,0,0,0c0,0,0,0,0,0
		c1.02,0.5,2.04,0.99,3.06,1.49c6.71-3.76,12.05-9.5,18.93-13C427.97,246.66,424.49,246.87,422.11,245.91z"/>
	<path class="st0" d="M99.1,389.88c0,0,0.01,0,0.01,0c1.92-7.3,3.85-14.61,5.77-21.91c-2.91-5.48-2.21-11.55-3.05-17.4
		c-3.1-21.51-4.44-43.13-4.78-64.84c-0.17-10.97-0.12-21.95-0.17-32.92c-2.84,13.51-3.87,27.25-4.82,40.98
		C89.85,326.15,91.87,358.21,99.1,389.88z"/>
	<path class="st0" d="M373.91,222.13c-9.55-11.53-17.47-24.17-25.27-36.89c-3.33-5.43-6.41-11.02-9.22-16.78
		c9.86,12.16,20.16,23.83,31.41,34.62c4.31,4.13,8.83,8.07,13.39,11.92c2.24,1.89,4.24,3.42,0.72,5.91
		c-0.77,0.55-1.51,1.51,0.07,2.19l0.02-0.01c2.73-3.52,5.16-3.36,8.74-0.51c11.13,8.88,22.99,16.74,35.55,23.49
		c1.14,0.61,3.19,0.65,2.57,2.9c0,0,0,0,0,0c1.66,0.37,2-1.34,3.04-1.93l0,0c-9.07-5.22-18.22-10.29-26.78-16.34
		c-34.65-24.49-64.6-53.32-84.35-91.54h0c-0.34,0.39-0.68,0.78-1.01,1.16c4.02,9.87,9.15,19.19,14.27,28.51
		c13.26,24.12,28.14,47.15,45.97,68.19c0.32-0.34,0.64-0.67,0.96-1.01C380.64,231.38,377.28,226.75,373.91,222.13z"/>
	<path class="st0" d="M106.03,407.97L106.03,407.97c-1.53,1.39-2.14,0.53-2.55-1c-0.8-2.99-1.65-5.97-2.47-8.96
		c-1.77-2.43-0.98-5.46-1.9-8.1c0-0.01,0-0.02-0.01-0.03c-7.23-31.67-9.26-63.73-7.03-96.09c0.95-13.73,1.98-27.46,4.82-40.98
		c1.24-11.42,3.7-22.6,7.53-34.75c-4.96,4.78-5.37,10.1-6.41,14.99c-8.77,41.09-11.69,82.55-6.88,124.38
		c2.1,18.31,5.62,36.38,11.77,53.84c0,0,0,0,0,0C103.51,409.76,106.28,410.3,106.03,407.97z"/>
	<path class="st0" d="M281.83,234.57c-30.17-26.01-48.3-59.68-60.7-96.84c-6.38-19.11-9.97-38.88-12.78-58.81
		c-0.54,11.25,2.09,22.14,3.7,33.13c0,0,0,0,0,0c2,6.57,3.84,13.17,4.86,19.98c0,0,0,0,0,0c0,0,0,0,0,0c0.3,0.49,0.6,0.98,0.9,1.47
		v0l0,0c8.53,27.42,20.68,53.03,37.87,76.15c0.26,0.35,0.23,0.92,0.33,1.38c4.36,4.7,8.58,9.54,13.11,14.06
		c17.05,17.04,35.91,31.46,58.7,40.09c0.35-0.33,0.71-0.66,1.06-0.99C311.42,257.17,296,246.79,281.83,234.57z"/>
	<path class="st0" d="M405.95,268.97c-9.12-1.6-18.39-2.29-27.42-4.55c-36.88-9.2-66.4-29.43-89.45-59.41
		c-0.37,0.36-0.73,0.73-1.1,1.09c1.57,2.54,3.09,5.11,4.7,7.62c14.04,21.75,30.75,40.88,53.25,54.34c1.64,0.56,3.19,1.24,4.09,2.86
		c0.8,0.12,1.62,0.45,2.59-0.48c-11.81-7.34-23.1-15.24-32.62-25.38c-6.23-5.31-10.81-12.03-16.02-18.17
		c0.85-0.86,1.45-0.71,1.98-0.21c21.46,20.12,46.46,33.63,75.16,40.25c0,0,0,0,0,0c6.33,0.67,12.52,2.39,18.96,2.28
		c1.68-0.03,3.64-0.08,4.76,1.74v0C405.82,270.63,405.9,269.81,405.95,268.97z"/>
	<path class="st0" d="M560.72,274.86c0.77,0.37,1.54,0.74,2.31,1.11v0c-1.28-6.21-3.84-11.98-6.13-17.84
		c-18.72-47.9-45.14-90.95-80.96-128.05c-0.34,0.35-0.68,0.69-1.02,1.04c3.94,4.74,8.57,8.88,12.01,14.05c0,0,0,0,0,0
		c10.05,10.43,18.36,22.23,26.48,34.15C533.61,208.96,549.41,240.8,560.72,274.86z"/>
	<path class="st0" d="M107.01,366.99c1.84-5.68,3.84-11.31,5.49-17.04c4.21-14.63,12.51-26.96,21.57-38.88
		c-0.3-0.35-0.6-0.69-0.9-1.04c-0.4,0.31-0.81,0.62-1.21,0.93v0c-3.02,4.13-6.04,8.25-9.07,12.38c-0.26-0.12-0.52-0.24-0.78-0.36
		c7.76-19.02,15.52-38.04,23.58-57.8c0.65,2.74,1.13,4.78,1.61,6.81c0.29-0.76,0.59-1.52,0.88-2.29c0.09,0.4,0.19,0.8,0.28,1.19
		c-0.01-0.38-0.14-0.78-0.28-1.19c-1.07-8.22-2.13-16.44-3.2-24.66c-0.37,0.79-0.74,1.57-1.11,2.36c0,0,0,0,0,0c0,0,0,0,0,0
		c0.32,3.46,0.48,6.95,1,10.38c0.42,2.72,0.07,5.14-1.02,7.69c-8.96,20.85-17.72,41.78-25.85,62.98
		c-4.74,12.35-8.49,25.01-12.75,37.51C105.84,366.31,106.43,366.65,107.01,366.99L107.01,366.99z"/>
	<path class="st0" d="M216.92,132.04C216.92,132.04,216.92,132.04,216.92,132.04c-1.02-6.81-2.85-13.41-4.86-19.98c0,0,0,0,0,0
		c-0.33,1.27-0.93,2.53-0.94,3.8c-0.1,10.09-1.75,20.02-2.99,30c-1.09,8.81-1.91,17.65-2.85,26.48
		c4.24-12.33,6.97-25.08,10.59-37.58C216.14,133.83,216.56,132.94,216.92,132.04z"/>
	<path class="st0" d="M464.23,215.96c1.71,1.94,3.18,4.09,4.75,6.15c7.13,3.95,12.41,10.31,19.16,14.75c1.1,0.73,2.3,1.47,3.06,2.49
		c0.42,0.56-0.74,0.71-1.27,0.95c0,0,0,0,0,0c2.18,2.01,2.91-0.49,4.17-1.34c-21.57-16.06-40.47-34.84-57.16-55.88
		c-0.34,0.35-0.68,0.7-1.02,1.05c8,9.98,16.01,19.96,24.01,29.95C462.25,212.65,463.16,214.74,464.23,215.96z"/>
	<path class="st0" d="M171.09,278.02c0.45,0.07,0.9,0.13,1.35,0.2c18.69-8.53,38.28-12.44,58.79-11.69
		c-20.01-3.52-38.89,0.55-57.19,8.63c-0.99,0.63-1.98,1.25-2.97,1.88C171.08,277.36,171.09,277.69,171.09,278.02z"/>
	<path class="st0" d="M195.74,207.97C195.74,207.97,195.74,207.97,195.74,207.97c8.99-24.03,15.87-48.68,21.5-73.7
		c0.06-0.28,0.37-0.51,0.56-0.76v0c-0.3-0.49-0.6-0.98-0.9-1.47c0,0,0,0,0,0c-0.35,0.91-0.78,1.79-1.05,2.72
		c-3.62,12.5-6.35,25.25-10.59,37.58c-2.51,11.49-6.91,22.4-10.3,33.61C195.23,206.62,195.49,207.3,195.74,207.97
		C195.74,207.97,195.74,207.97,195.74,207.97z"/>
	<path class="st0" d="M469.18,262.82c-5.38-0.49-10.8,1.05-16.08-0.68c0,0,0,0,0,0c-2.91,0.43-5.69,1.31-8.29,2.69c0,0,0,0,0,0
		c1.29,1.07,2.61,0.72,4.15,0.44c8.31-1.52,16.64-1.79,25.05-0.36c2.21,0.38,3.77,2.07,5.98,2.09c1.34-1.82,2.64-0.19,3.96,0.04
		c3.98-2.19,7.78,0.56,11.72,0.52c3.42-0.03,6.86,0.66,10.33,0.37c2.2-1.51,4.85-0.03,7.12-1.05c-1.82-0.07-3.64-0.16-5.46-0.27
		c-15.17-0.86-30.17-2.81-44.75-7.48v0c-0.02,0.57-0.05,1.14-0.07,1.7C465.14,260.9,467.22,261.59,469.18,262.82z"/>
	<path class="st0" d="M147.31,272c0.2,1.7,0.41,3.4,0.61,5.11c0.92,3.32,1.75,6.68,2.81,9.96c0.7,2.17-0.51,3.3-1.75,4.69
		c-5.35,6.02-11.16,11.64-15.8,18.27c0.3,0.35,0.6,0.69,0.9,1.04c5.75-6.16,10.95-12.84,17.81-18.73c3.04,8.43,5.57,16.78,9.39,24.6
		c0,0,0,0,0,0c0,0,0,0,0,0c0.29-0.35,0.58-0.69,0.87-1.04c-6.04-14.55-10.16-29.68-13.67-44.99c-0.09-0.4-0.19-0.8-0.28-1.19
		C147.9,270.48,147.61,271.24,147.31,272z"/>
	<path class="st0" d="M144.99,245.05c-1.04-18.7,0.03-37.28,3.32-55.72c-0.38-0.41-0.77-0.81-1.15-1.22
		c-2.03,10.9-4.21,21.79-4.02,32.96c1.26,5.31,1.25,10.62,0,15.93c-0.23,3.5-0.38,7,0.74,10.41c0,0,0,0,0,0
		C144.25,246.63,144.62,245.84,144.99,245.05z"/>
	<path class="st0" d="M111.25,430.11c-0.41-1.18-2.61-2.71-0.19-4.16v0c-1.39-1.66-1.39-1.66-3.05,1.05
		c3.95,12.93,9.67,25.09,16.04,36.96c0.36-0.37,0.72-0.75,1.08-1.12C120.01,452.15,115.13,441.34,111.25,430.11z"/>
	<path class="st0" d="M152.43,500.12c-1.83-2.02-3.6-4.09-5.39-6.14c0,0,0,0,0,0c0,0,0,0,0,0c-8.8-9.32-15.73-19.95-21.89-31.13
		c-0.36,0.37-0.72,0.75-1.08,1.12c1.93,3.43,3.75,6.94,5.82,10.29c5.47,8.87,11.89,16.99,19.4,24.24c0.38,0.37,3.91,1.96-0.21,2.29
		c0,0.36-0.01,0.72-0.01,1.08c0.66,0.1,1.31,0.2,1.97,0.3C151.69,501.61,154.9,502.84,152.43,500.12z"/>
	<path class="st0" d="M195.74,207.97c-0.26-0.68-0.51-1.35-0.77-2.03c-0.09,0.17-0.15,0.34-0.21,0.49c-0.64,1.5-1.31,3-1.87,4.53
		c-4.53,12.4-8.82,24.92-16.64,35.79c-1.73,1.3-1-0.7-1.47-1.09h0c-0.76,1.38-0.8,2.86-0.68,4.38c0.94,0,1.89,0.01,2.83,0.01
		c0.29-0.4,0.59-0.79,0.88-1.19C184.62,235.6,191.04,222.16,195.74,207.97C195.74,207.97,195.74,207.97,195.74,207.97z"/>
	<path class="st0" d="M170.13,317.04c0.17,4.05,0.24,8.22,1.82,12.1c0,0,0,0,0,0c0.42-1.98-0.26-4.16,1.11-5.96h0
		c-0.99-0.33-0.96-1.17-1.05-1.99c-1.5-14.34-0.91-28.67,0.44-42.98c-0.45-0.07-0.9-0.13-1.35-0.2
		C169.19,290.99,169.58,304.03,170.13,317.04z"/>
	<path class="st0" d="M468.98,222.1c-1.57-2.06-3.05-4.21-4.75-6.15c-1.07-1.22-1.98-3.31-4.3-1.89
		c7.52,9.76,15.65,18.96,24.96,27.06c0.03-0.45,0.06-0.9,0.1-1.35C479.98,233.6,473.46,228.78,468.98,222.1z"/>
	<path class="st0" d="M571.96,315.06c2.91,8.74,4.21,17.84,5.98,26.84c0.29,1.47-0.34,3.49,1.96,4.01
		c-1.38-11.34-3.25-22.57-6.59-33.52c-0.06-0.21-0.12-0.42-0.18-0.63C572.74,312.86,572.35,313.96,571.96,315.06z"/>
	<path class="st0" d="M176.25,246.76c1.91-11.52,3.83-23.03,5.74-34.55c-0.49,1.46-0.95,2.93-1.39,4.41
		c-0.03,0.1-0.05,0.2-0.08,0.29c-2.77,9.42-4.44,19.05-5.74,28.76C175.25,246.06,174.53,248.06,176.25,246.76z"/>
	<path class="st0" d="M406.1,259.46c-7.38-7.81-14.73-15.63-22.09-23.45c-0.32,0.34-0.64,0.67-0.96,1.01
		c7.15,9.02,14.83,17.51,23.98,24.57c0,0,0,0,0,0C407.23,260.65,406.68,260.08,406.1,259.46z"/>
	<path class="st0" d="M99.11,389.91c0.92,2.63,0.13,5.66,1.9,8.1c-0.55-8.8,2.86-16.88,4.58-25.27c0.4-1.93,0.94-3.83,1.42-5.74
		c-0.59-0.34-1.17-0.68-1.76-1.02c-0.12,0.66-0.24,1.33-0.36,1.99c0,0,0,0,0,0c-1.92,7.3-3.85,14.61-5.77,21.91
		C99.12,389.89,99.11,389.9,99.11,389.91z"/>
	<path class="st0" d="M171.08,277.03L171.08,277.03c0.99-0.62,1.98-1.25,2.97-1.88c-1.82-8.69,0.12-16.94,2.89-25.1
		c-0.94,0-1.89-0.01-2.83-0.01C172.64,258.99,171.28,267.94,171.08,277.03z"/>
	<path class="st0" d="M323.81,139.16c-3.4-7.9-6.79-15.81-10.19-23.71c0.24,1.03,0.5,2.06,0.76,3.09c0.03,0.13,0.07,0.27,0.11,0.4
		c1.96,7.46,4.55,14.65,8.31,21.39C323.14,139.93,323.47,139.54,323.81,139.16L323.81,139.16z"/>
	<path class="st0" d="M345.93,268.06c-0.97,1.56-2.21,0.74-3.39,0.38c-4.55-1.41-9.1-2.82-13.65-4.23
		c-0.35,0.33-0.71,0.66-1.06,0.99c7.06,3.22,14.41,5.31,22.19,5.72C349.13,269.3,347.57,268.62,345.93,268.06z"/>
	<path class="st0" d="M187.26,186.02c-2.64,7.91-5.18,15.84-6.1,24.06c0.51,0.09,1.02,0.19,1.54,0.28
		C184.21,202.24,185.73,194.13,187.26,186.02z"/>
	<path class="st0" d="M425.62,167.86c-0.38,0.27-0.76,0.55-1.14,0.82c3.59,5.29,7,10.71,11.44,15.44c0.34-0.35,0.68-0.7,1.02-1.05
		C433.17,178,429.4,172.93,425.62,167.86z"/>
	<path class="st0" d="M465.62,121.88c3.1,3.08,6.2,6.16,9.3,9.24c0.34-0.35,0.68-0.69,1.02-1.04
		C473.17,126.6,470.14,123.42,465.62,121.88z"/>
	<path class="st0" d="M135.95,498.12c-0.34,0.32-0.68,0.65-1.03,0.97c0,0,0,0,0,0c4.53,1.84,9.34,2.27,14.14,2.77
		c0-0.36,0.01-0.72,0.01-1.08C144.7,499.9,140.33,499.01,135.95,498.12z"/>
	<path class="st0" d="M282.92,195.12c-0.45-0.04-0.91-0.07-1.37-0.11c0,0,0,0,0,0c0,0,0,0,0,0c1.71,3.95,3.68,7.74,6.43,11.09
		c0.37-0.36,0.73-0.73,1.1-1.09C287.02,201.71,284.97,198.41,282.92,195.12z"/>
	<path class="st0" d="M8.14,321.55c0.08-0.46,0.15-0.92,0.21-1.39c0.88-6.01,0.46-12.07,0.55-18.12
		C7.11,308.49,8.49,315.06,8.14,321.55z"/>
	<path class="st0" d="M161.28,316.94c1.59,3.36,3.19,6.72,4.78,10.07l0,0c0.37-0.04,0.73-0.08,1.1-0.11c-1-3.98-3.02-7.48-5.02-11
		C161.85,316.25,161.57,316.6,161.28,316.94C161.28,316.94,161.28,316.94,161.28,316.94z"/>
	<path class="st0" d="M143.14,221.07c0,5.31,0,10.62,0,15.93C144.39,231.69,144.4,226.38,143.14,221.07z"/>
	<path class="st0" d="M149.94,180.27c-2.04,2.73-2.53,5.24-2.78,7.84c0.38,0.41,0.77,0.81,1.15,1.22
		C149.42,186.65,150.13,183.9,149.94,180.27z"/>
	<path class="st0" d="M282.92,195.12c-1.07-2.74-2.16-5.47-5.16-8.65c1.37,3.74,1.8,6.45,3.8,8.54c0,0,0,0,0,0
		C282.01,195.05,282.46,195.08,282.92,195.12z"/>
	<path class="st0" d="M8.9,348.98c-0.05-3.78,0.21-7.58-0.51-11.32c-0.07-0.4-0.15-0.79-0.25-1.18c0,0,0,0,0-0.01c0,0,0,0,0,0
		C8.43,340.64,7.2,344.9,8.9,348.98z"/>
	<path class="st0" d="M312.76,113.38c-0.32-2.5-0.38-4.36-2.84-6.18C310.54,109.76,310.37,111.7,312.76,113.38z"/>
	<path class="st0" d="M460.07,602.94c-1.05-1.16-1.2-3.07-3.47-3.85c0.44,2.5,0.83,4.68,1.22,6.87v0
		C460.86,606.66,459.3,603.94,460.07,602.94z"/>
	<path class="st0" d="M206.18,442.01C206.18,442.01,206.18,442.01,206.18,442.01c-0.41,0.35-0.82,0.69-1.23,1.04c0,0,0,0,0,0
		c-0.81,1.6-3.03,0.43-3.88,1.96c2.05,1.17,1.93,2.53-0.29,2.82c-13,1.7-22.43,10.13-32.27,17.45
		c-8.15,6.06-14.25,14.06-15.95,24.61c-0.5,3.13-1.84,5.23-5.53,4.09c0,0,0,0,0,0c1.8,2.05,3.56,4.13,5.39,6.14
		c2.48,2.72-0.74,1.5-1.39,2.05c1.07,3.04,1.36,6.12,0.7,9.31c-1.53,7.39,0.3,14.35,5.73,19.1c8.94,7.82,17.66,16.52,30.85,17.02
		c8.93,0.34,18.3,3.54,26.67,0.77c9.95-3.29,20.54-3.55,30.26-8.47c6.51-3.3,13.21-6.62,18.73-10.94
		c14.72-11.51,25.86-25.46,26.36-45.8c0.15-6.29-0.71-11.74-3.33-17.12c-3.41-7.02-7.39-13.39-13.58-18.74
		c-3.83-3.32-7.05-5.53-11.99-5.39c-1.27,0.04-2.6-0.49-3.84-0.93c-6.33-2.26-12.84-3.2-19.54-3.01
		c-5.99,0.16-11.99,0.21-17.99,0.31c0,0,0,0,0,0C215.35,439.22,211.37,442.88,206.18,442.01z"/>
	<path class="st0" d="M249.01,414.55C249.01,414.55,249.01,414.55,249.01,414.55c0.32-4.85,0.63-9.7,0.95-14.56
		c-7.58-6.09-15.99-9.75-25.94-9c-0.33,1.43-0.71,2.85-0.98,4.29c-0.37,1.94-0.42,4.14-2.78,4.78c-2.51,0.68-3.99-1.03-5.35-2.77
		c-0.6-0.77-1.16-1.58-1.74-2.38c-12.4,6.07-17.08,17.04-19.2,29.79c-0.87,5.25-0.54,10.42-0.21,15.66
		c0.19,3.05,1.53,3.59,4.12,3.17c2.33-0.37,4.59-2.22,7.07-0.49c0.41-0.35,0.82-0.69,1.23-1.04c0,0,0,0,0,0c0,0,0,0,0,0
		c0.55-1.41,2.3-0.85,3.08-1.88c-5.45-7.5-3.89-15.33,0.16-22.42c3.7-6.49,9.94-9.3,17.79-9.93c9.4-0.75,14.93,4.59,20.68,10.28
		c0.4-0.35,0.81-0.7,1.21-1.05C249.07,416.19,249.04,415.37,249.01,414.55C249.01,414.55,249.01,414.55,249.01,414.55z"/>
	<path class="st0" d="M217.81,133.51L217.81,133.51c-0.19,0.25-0.5,0.48-0.56,0.76c-5.63,25.01-12.51,49.66-21.5,73.7c0,0,0,0,0,0
		c-4.7,14.19-11.12,27.63-17.93,40.9c2.6-0.77,3.89-2.95,5.28-4.98c3.58-5.19,6.74-10.61,9.91-16.06
		c9.21-15.83,15.65-32.84,22-49.91c2.14-5.75,2.66-12.07,6.04-18.19c0.01-0.01,0.01-0.02,0.02-0.03c0,0.01,0.01,0.02,0.01,0.03
		c5.7,12.61,11.73,24.16,19.61,34.64c4.56,6.06,8.75,12.46,15.32,16.66c0,0,0,0,0,0c-0.11-0.47-0.07-1.03-0.33-1.38
		C238.49,186.54,226.34,160.93,217.81,133.51z"/>
	<path class="st0" d="M461.91,359.12C461.91,359.12,461.91,359.12,461.91,359.12c1.46-6.16,3.29-11.82,7.97-16.81
		c10.32-11.02,22.33-3.81,27.55,4.66c2.6,4.22,2.49,9.15,3.51,13.78c1.01-0.02,2.02-0.04,3.04-0.06c0,0,0,0,0,0
		c2.99-1.24,5.98-2.47,8.98-3.71c0,0,0,0,0,0c0.35-1.3,0.7-2.61,1.05-3.91c-0.17-5.46-4.12-8.96-7.06-12.8
		c-5.61-7.33-12.78-12.79-21.59-16.02c-4.1-1.5-6.74-1.05-7.35,3.79c-1.92,3.05-4.33,2.21-6.63,0.68c-1.59-1.06-2.96-2.45-4.42-3.7
		c-9.36,3.61-14.42,10.54-16.35,20.27c-0.43,2.15,0.16,3.86,0.32,5.77c1.19,1.33,2.39,2.66,3.58,3.99c0,0,0,0,0,0
		c0.8,0.66,1.61,1.32,2.41,1.99c0,0,0,0,0,0c0.77,0.69,1.54,1.38,2.31,2.07C460.12,359.11,461.02,359.11,461.91,359.12
		C461.91,359.12,461.91,359.12,461.91,359.12z"/>
	<path class="st0" d="M454.51,355.05C454.51,355.05,454.51,355.05,454.51,355.05C454.51,355.05,454.51,355.05,454.51,355.05
		c-3.67-0.04-5.04-3.26-7.04-5.39c-2.77-2.96-5.51-6.02-7.38-9.7c-8.29-11.94-11.93-25.38-13.36-39.8c2.45-0.08,3.99,0.83,5.53,1.71
		v0c4.87,0.34,9.68,0,14.44-1.09h0l0,0c1.71-1.36,5.03-1.2,4.99-4.11c-0.04-2.94-2.64-4.31-4.98-5.62
		c-5.56-3.1-11.54-3.75-17.74-3.21l0,0c-2.52-0.82-0.81-2.46-0.51-3.56c1.45-5.32,3.8-10.2,7.54-14.34
		c-7.13,1.47-12.12,6.22-17.01,11.11c0.3,0.89,0.69,1.58,0.39,2.75c-3.33,12.9-2.74,25.62,2.03,38.12
		c4.43,11.61,11.65,21.42,20.58,29.77c3.85,3.6,8.15,8.74,14.95,5.35c0,0,0,0,0,0C456.12,356.37,455.32,355.71,454.51,355.05z"/>
	<path class="st0" d="M227.2,407.77c-7.85,0.63-14.09,3.44-17.79,9.93c-4.04,7.1-5.6,14.92-0.16,22.42
		c11.26-2.6,21.17-8.13,30.85-14.17c0,0,0,0,0,0c0,0,0,0,0,0c3.16-2.07,4.42-6.02,7.78-7.9c0,0,0,0,0,0
		C242.13,412.36,236.6,407.02,227.2,407.77z"/>
	<path class="st0" d="M250.96,378.99c-0.03,0.02-0.06,0.03-0.1,0.04c0.03,0.04,0.04,0.08,0.07,0.11
		C250.94,379.09,250.95,379.04,250.96,378.99z"/>
	<path class="st0" d="M233.22,330.86c-2.55,1.08-5.45-0.78-7.93,0.86c0.02,0.07,0.05,0.14,0.07,0.21c2.77,0.97,5.53,1.95,7.61,4.19
		c1.26,0.71,2.31,1.61,2.9,2.97c9.83,9.07,13.37,20.99,15.3,33.65c0.17,1.12,0.42,2.22,0.64,3.33c0.82,8.59,1.12,17.19,0.03,25.78
		c-0.08-0.15-0.16-0.31-0.24-0.46c0.04,0.17,0.11,0.33,0.24,0.46c-1.16,4.18-0.38,8.8-2.83,12.69c0,0,0,0,0,0
		c0.03,0.82,0.06,1.64,0.09,2.46c1.65,1.05,1.95-0.67,2.55-1.39c5.08-6.14,7.6-13.36,9.13-21.11c2.49-12.62,1.99-24.99-3.13-36.81
		c-2.47-5.7-4.42-11.69-8.33-16.81c-1.44-1.89-3.43-4.15-3.21-7.08v0C241.98,332.06,237.74,330.85,233.22,330.86z"/>
	<path class="st0" d="M303.98,226.88c5.21,6.14,9.79,12.86,16.02,18.17c0.9-1,1.46,0,2.05,0.41c8.83,6.15,18.36,11.08,28.27,15.12
		c9.81,4,20.17,5.96,30.8,6.34c0,0,0,0,0,0c-28.69-6.62-53.7-20.13-75.16-40.25C305.43,226.17,304.83,226.02,303.98,226.88z"/>
	<path class="st0" d="M421.14,447.36c-5.4,2.99-11.01,5.51-16.92,7.26c-11.27,3.34-22.72,5.92-33.78,10.2
		c-14.31,5.54-29.57,6.19-45.2,5.63c2.17,2.13,4.79,2.27,7.12,2.37c12.18,0.51,24.3-0.28,35.85-4.48
		c10.58-3.85,21.04-7.83,32.15-10.11c13.47-2.77,25.37-8.85,34.54-19.49c0.62-0.72,1.71-1.38,0.88-2.98
		C430.99,440.14,426.54,444.37,421.14,447.36z"/>
	<path class="st0" d="M503.9,361.9C503.9,361.9,503.9,361.9,503.9,361.9c0.03-0.41,0.05-0.81,0.08-1.22c0,0,0,0,0,0c0,0,0,0,0,0
		c-1.01,0.02-2.02,0.04-3.04,0.06c-11.36,2.08-22.76,1.44-34.16,0.43c-1.89-0.17-3.54-0.67-4.87-2.06c0,0,0,0,0,0
		c-0.89-0.01-1.79-0.01-2.68-0.02c0,0,0,0,0,0c5.92,4.3,12.83,4.59,19.74,4.92c0,0,0,0,0,0C487.37,364.42,495.62,362.98,503.9,361.9
		z"/>
	<path class="st0" d="M209.25,440.13c-0.78,1.03-2.53,0.47-3.08,1.88c0,0,0,0,0,0c5.2,0.88,9.18-2.79,13.89-3.72c0,0,0,0,0,0
		c0.87-0.42,1.76-0.8,2.61-1.26c6.08-3.26,13.03-5.15,17.41-11.07c0,0,0,0,0,0C230.42,432,220.51,437.53,209.25,440.13z"/>
	<path class="st0" d="M260.85,340.11c0.96,1.23,2.17,2.02,4.31,2.84c-1.14-2.27-1.15-4.2-3.15-4.9v0
		C261.99,338.94,261.72,339.69,260.85,340.11z"/>
	<path class="st0" d="M398.97,281c-1.59,1.66-2.31,3.68-2.86,6.19c1.98-1.18,3.19-2.43,3.83-4.2c0,0,0,0,0,0
		C399.06,282.6,399.19,281.72,398.97,281z"/>
	<path class="st0" d="M539.76,284.69c-10.25-7.61-22.02-12.16-33.76-16.77c-3.47,0.29-6.91-0.4-10.33-0.37
		c-3.94,0.04-7.74-2.71-11.72-0.52h0c15.19,7.86,23.63,21.24,29.8,36.47c2.16,5.33,3.78,10.84,5.12,16.43
		c0.02,1.03,0.05,2.05,0.07,3.07c0,0,0,0,0,0c0.95,0.85,1.15,1.9,0.85,3.09c0.56,4.29,0.85,8.57,0.05,12.87
		c-0.64,6.44-2.93,12.33-5.99,17.96c0.01,0.35,0.03,0.7,0.04,1.05c0.45,0.13,0.92,0.43,1.33,0.37c9.82-1.6,19.46-4.11,28.24-8.75
		c6.91-3.65,14.09-7.47,17.25-15.51c0,0,0,0,0,0C561.76,314.21,556.41,297.05,539.76,284.69z"/>
	<path class="st0" d="M512.96,356.98C512.96,356.98,512.96,356.98,512.96,356.98C512.96,356.98,512.96,356.98,512.96,356.98
		c-2.99,1.23-5.98,2.47-8.98,3.71c0,0,0,0,0,0c-0.03,0.41-0.05,0.81-0.08,1.22c0,0,0,0,0,0c3.43-1.08,7.12-1.48,10.01-3.93
		c-0.01-0.35-0.03-0.7-0.04-1.05C513.56,356.91,513.26,356.93,512.96,356.98z"/>
	<path class="st0" d="M190.3,446.54c0.92-0.16,1.41-0.77,1.74-1.58h0c-0.05-0.28-0.06-0.56-0.05-0.85c0,0,0,0,0,0c0,0,0,0,0,0
		c-3.74-2.96-7.3-6.09-9.9-10.15c-10.56-13.07-12.29-28.7-12.89-44.64c-0.09-2.49,0.06-4.99,0.17-7.49
		c0.34-7.87,0.36-7.86,7.69-9.87c0.95-0.26,1.92-0.58,2.76-1.07c2.27-1.33,5.31-2.55,4.93-5.6c-0.37-2.99-3.41-4.05-6.07-4.28
		c-4.67-0.4-3.96-2.41-2.17-5.35c2.53-4.17,4.35-8.82,8.5-11.83c-0.4-0.32-0.81-0.64-1.21-0.96c-4.38,1.91-8.25,4.67-11.75,7.84
		c-14.66,13.28-26.81,28.67-34.89,46.7c-7.6,16.95-3.25,33.25,5.62,48.67c3.56,3.08,8.44,2.97,12.41,3.52
		C166.95,451.21,178.67,448.61,190.3,446.54z"/>
	<path class="st0" d="M161.28,316.94c-3.82-7.82-6.36-16.17-9.39-24.6c-6.86,5.89-12.07,12.56-17.81,18.73
		c-9.06,11.92-17.35,24.25-21.57,38.88c-1.65,5.73-3.65,11.36-5.49,17.04v0c-0.48,1.91-1.03,3.81-1.42,5.74
		c-1.72,8.39-5.13,16.47-4.58,25.27c0.83,2.99,1.67,5.97,2.47,8.96c0.41,1.53,1.02,2.39,2.55,1c0,0,0,0,0,0
		c5.08-12.44,10.28-24.84,17.46-36.25c11.16-17.75,25.09-32.93,42.56-44.71c0,0,0,0,0,0C164.46,323.66,162.87,320.3,161.28,316.94
		C161.28,316.94,161.28,316.94,161.28,316.94z"/>
	<path class="st0" d="M111.25,430.11c3.88,11.22,8.76,22.03,13.9,32.73c6.16,11.18,13.09,21.81,21.89,31.13c0,0,0,0,0,0
		c3.69,1.14,5.03-0.96,5.53-4.09c1.69-10.55,7.79-18.55,15.95-24.61c9.84-7.31,19.26-15.75,32.27-17.45
		c2.22-0.29,2.34-1.65,0.29-2.82c-3.01-0.55-6.03,2.49-9.03-0.04c0,0,0,0,0,0h0c-0.33,0.8-0.82,1.41-1.74,1.58
		c-11.63,2.08-23.35,4.67-35.11,3.07c-3.97-0.54-8.85-0.44-12.41-3.52c-0.49,2.5-1.88,1.03-2.82,0.53
		c-10.56-5.58-20.21-12.46-28.9-20.67h0C108.64,427.41,110.84,428.93,111.25,430.11z"/>
	<path class="st0" d="M192.49,339.06c-2.16,1.65-4.87,2.56-6.58,4.83c1.42,1.7-0.48,2.28-1.2,3.01c-3.18,3.24-5.32,7.08-7.17,11.39
		c3.03,1.5,6.72,1.71,8.68,4.96c0.74,1.21,0.42,2.3,0.12,3.4c0.1,0.37,0.16,0.79,0.22,1.19c5.33-1.77,9.72-5.43,15.08-7.26
		c12.61-4.32,25.29-6.96,38.73-4.73c2.54,0.42,4.09,1.46,5.65,3.05c0.02-0.01,0.03-0.02,0.05-0.04c-1.37-6.11-4.74-11.14-8.58-15.94
		c-0.83-1.03-3.37-1.61-1.63-3.82c-0.59-1.36-1.64-2.27-2.9-2.97c-4.04,0.96-6.33-3.32-10.04-3.36c-0.04,0-0.13-0.3-0.1-0.44
		c0.03-0.15,0.18-0.27,0.27-0.41c-1.11-2.17-3.95,0.74-4.97-1.69l0,0c-0.36-0.04-0.71-0.09-1.07-0.13
		c-2.89,3.25-6.34,3.45-10.11,1.82c0,0,0,0,0,0c0,0,0,0,0,0c-3.21,0.35-6.27,1.19-9.03,2.94
		C197.22,337.67,194.31,337.66,192.49,339.06z M208.54,332.76c-3.1,2.26-5.35,2.69-7.64,2.98
		C202.75,334.23,204.89,333.51,208.54,332.76z"/>
	<path class="st0" d="M185.92,343.89c1.71-2.27,4.42-3.17,6.58-4.83c1.82-1.39,4.73-1.39,5.43-4.21c-5.09,2-10,4.32-14.13,8.03
		c0.4,0.32,0.81,0.64,1.21,0.96C185.31,344,185.61,344.02,185.92,343.89z"/>
	<path class="st0" d="M217.07,330.09c-3.53-0.29-6.92,0.25-10.11,1.82c0,0,0,0,0,0C210.73,333.54,214.17,333.34,217.07,330.09z"/>
	<path class="st0" d="M223.11,331.9c0.67-0.02,1.33-0.04,2-0.07c0.06-0.04,0.12-0.08,0.18-0.12c2.48-1.64,5.38,0.22,7.93-0.86
		c-4.98-1.35-10.03-0.94-15.08-0.64v0C219.16,332.65,222,329.73,223.11,331.9z"/>
	<path class="st0" d="M491.21,239.35c-0.76-1.03-1.96-1.77-3.06-2.49c-6.76-4.44-12.04-10.8-19.16-14.75
		c4.48,6.67,10.99,11.5,16.01,17.68c1.65,0.17,3.3,0.34,4.95,0.51l0,0C490.47,240.06,491.63,239.91,491.21,239.35z"/>
	<path class="st0" d="M448.14,301.06C448.14,301.06,448.14,301.06,448.14,301.06C448.14,301.06,448.14,301.06,448.14,301.06
		C448.14,301.06,448.14,301.06,448.14,301.06c0.97,0.73,1.9,0.45,2.82-0.1c0,0,0,0,0,0c0.67-1.13,2.05-2.39,1.88-3.37
		c-1.01-5.79,2.78-6.21,6.89-7.03c13.43-2.7,26.82-4.1,40.35-0.73c1.57,0.39,3.31,0.1,4.97,0.13c0,0,0,0,0,0c0,0,0,0,0,0
		c-6.05-10.17-14.21-18.03-25.06-22.97c0,0,0,0,0,0c-2.21-0.02-3.77-1.72-5.98-2.09c-8.41-1.42-16.74-1.16-25.05,0.36
		c-1.54,0.28-2.85,0.64-4.15-0.44l0,0c-2.9,0.89-5.87,1.64-7.95,4.11c1.53,1.82-0.1,2.97-0.96,4.22c-1.48,2.16-3.24,4.11-4.25,6.61
		c-2.27,5.58-2.26,5.73,3.33,6.75c-1.87,1.15-4.37-0.68-6.01,1.33c6.21-0.54,12.19,0.11,17.74,3.21c2.35,1.31,4.94,2.67,4.98,5.62
		c0.04,2.91-3.28,2.75-4.99,4.11l0,0C447.18,300.87,447.66,300.96,448.14,301.06C448.14,301.06,448.14,301.06,448.14,301.06z"/>
	<path class="st0" d="M429.32,246.06c-12.56-6.75-24.42-14.61-35.55-23.49c-3.58-2.85-6.01-3.01-8.74,0.51
		c11.89,8.37,23.4,17.31,37.08,22.83c2.38,0.96,5.86,0.75,6.9,4.17c0.96-0.37,1.92-0.74,2.89-1.11c0,0,0,0,0,0
		C432.5,246.71,430.46,246.68,429.32,246.06z"/>
	<path class="st0" d="M434.97,286.51c-5.58-1.02-5.6-1.16-3.33-6.75c1.02-2.5,2.77-4.45,4.25-6.61c0.86-1.25,2.49-2.4,0.96-4.22
		c-0.29,0.34-0.58,0.67-0.87,1.01c-3.74,4.13-6.09,9.02-7.54,14.34c-0.3,1.1-2.01,2.74,0.51,3.56l0,0
		C430.6,285.82,433.1,287.65,434.97,286.51z"/>
	<path class="st0" d="M469.18,262.82c-1.96-1.23-4.05-1.92-6.33-2c-3.25,0.44-6.5,0.87-9.75,1.31c0,0,0,0,0,0
		C458.38,263.87,463.8,262.33,469.18,262.82z"/>
	<path class="st0" d="M384.94,220.9c3.52-2.49,1.52-4.02-0.72-5.91c-4.57-3.85-9.08-7.78-13.39-11.92
		c-11.25-10.79-21.55-22.47-31.41-34.62c2.81,5.76,5.89,11.35,9.22,16.78c7.8,12.72,15.72,25.37,25.27,36.89
		c-1.18-4.64-5.27-7.91-6.67-13.96c-0.07-0.31-0.14-0.63-0.2-0.95c0.22,0.25,0.44,0.49,0.66,0.73c5.57,6.09,12.39,9.03,15.71,15.71
		c0.26,0.52,1.19,0.03,1.6-0.57C383.43,222.41,384.17,221.45,384.94,220.9z"/>
	<path class="st0" d="M135.88,301.44c4.02-8.11,7-16.73,12.04-24.33c0,0,0,0,0,0c-0.2-1.7-0.41-3.41-0.61-5.11
		c-0.48-2.03-0.96-4.07-1.61-6.81c-8.06,19.76-15.82,38.78-23.58,57.8c0.26,0.12,0.52,0.24,0.78,0.36
		c3.02-4.13,6.04-8.25,9.07-12.38v0l0,0C130.93,306.85,134.37,304.48,135.88,301.44z"/>
	<path class="st0" d="M150.74,287.07c-1.06-3.28-1.89-6.63-2.81-9.96c0,0,0,0,0,0c-5.04,7.6-8.03,16.22-12.04,24.33
		c-1.51,3.05-4.95,5.42-3.91,9.53l0,0c0.4-0.31,0.81-0.62,1.21-0.93c4.65-6.63,10.45-12.26,15.8-18.27
		C150.22,290.36,151.44,289.23,150.74,287.07z"/>
	<path class="st0" d="M505.06,289.95C505.06,289.96,505.06,289.96,505.06,289.95c2.95,4.36,5.49,8.92,6.79,14.07
		c1.59,3.59,3.16,7.18,3.89,11.08c0.74,1.8,0.14,4.49,3.14,4.82c-1.34-5.59-2.96-11.1-5.12-16.43
		c-6.17-15.22-14.61-28.61-29.8-36.47h0c-1.32-0.23-2.62-1.86-3.96-0.04c0,0,0,0,0,0C490.85,271.92,499.01,279.78,505.06,289.95z"/>
	<path class="st0" d="M211.11,378.06C211.11,378.06,211.11,378.06,211.11,378.06C211.11,378.06,211.11,378.06,211.11,378.06
		c-5.81-0.29-10.19,3.14-14.57,6.08c-8.28,5.55-13.71,13.67-18.63,22.14c-1.31,2.26-2.62,4.52-3.93,6.79c0,0,0,0,0,0c0,0,0,0,0,0
		c1.68,7.24,4.72,13.87,9.05,19.91c2.65,3.98,7.31,6.35,8.95,11.14c0,0,0,0,0,0c-0.02,0.28,0,0.57,0.05,0.85c0,0,0,0,0,0
		c3,2.53,6.02-0.51,9.03,0.04c0.85-1.53,3.06-0.36,3.88-1.96c0,0,0,0,0,0c-2.48-1.73-4.74,0.12-7.07,0.49
		c-2.59,0.41-3.93-0.12-4.12-3.17c-0.33-5.24-0.66-10.41,0.21-15.66c2.12-12.74,6.8-23.72,19.2-29.79
		C211.42,389.43,210.81,383.8,211.11,378.06z"/>
	<path class="st0" d="M250.81,399.88L250.81,399.88c0.02-5.3,0.04-10.6,0.06-15.89c-6.65-3.08-13.62-4.92-20.93-5.56
		c-2.76-0.24-4.55,1.74-6.83,2.56v0c0.03,3.36-0.06,6.72,0.91,10c9.95-0.75,18.37,2.91,25.94,9
		C250.24,399.95,250.53,399.92,250.81,399.88C250.81,399.88,250.81,399.88,250.81,399.88z"/>
	<path class="st0" d="M223.11,380.99C223.11,380.99,223.11,380.99,223.11,380.99c-0.81-2.74-1.04-5.7-3.11-7.94
		c-5.29-2.47-7.05,1.33-8.88,5.01c0,0,0,0,0,0c-0.3,5.74,0.31,11.36,2.05,16.85c0.58,0.79,1.14,1.6,1.74,2.38
		c1.36,1.74,2.84,3.45,5.35,2.77c2.37-0.64,2.42-2.84,2.78-4.78c0.27-1.44,0.65-2.86,0.98-4.29
		C223.04,387.72,223.13,384.35,223.11,380.99L223.11,380.99z"/>
	<path class="st0" d="M250.81,399.88c-0.28,0.04-0.57,0.07-0.85,0.11c-0.32,4.85-0.63,9.71-0.95,14.56c0,0,0,0,0,0
		c2.44-3.9,1.67-8.51,2.83-12.69c-0.13-0.13-0.2-0.29-0.24-0.46C251.33,400.89,251.07,400.38,250.81,399.88
		C250.81,399.88,250.81,399.88,250.81,399.88z"/>
	<path class="st0" d="M518.72,335.82c0-1.21,0.01-2.42,0.01-3.64c0,0,0,0,0,0c-1.49-3.1-0.68-6.14,0.22-9.18c0,0,0,0,0,0
		c-0.02-1.02-0.05-2.05-0.07-3.07c-3-0.33-2.4-3.01-3.14-4.82c-2.17,1.46-3.67-0.11-5.34-1.12c-10.99-6.62-22.7-9.64-35.5-6.94
		c-0.75,0.16-1.41,0.74-2.11,1.13c0,0,0,0,0,0c0,0,0,0,0,0c2.67,6.37,5.89,12.6,5.22,19.86c0.61-4.84,3.25-5.29,7.35-3.79
		c8.81,3.23,15.98,8.69,21.59,16.02c2.94,3.84,6.89,7.34,7.06,12.8C516.78,347.64,517.73,341.72,518.72,335.82
		C518.72,335.82,518.72,335.82,518.72,335.82z"/>
	<path class="st0" d="M469.88,342.31c-4.68,4.99-6.51,10.65-7.97,16.81c0,0,0,0,0,0c1.33,1.39,2.98,1.89,4.87,2.06
		c11.41,1,22.8,1.64,34.16-0.43c-1.02-4.63-0.91-9.56-3.51-13.78C492.21,338.5,480.2,331.29,469.88,342.31z"/>
	<path class="st0" d="M461.8,313.04c-6.06-0.82-10.72,2.46-14.97,5.83c-4.09,3.24-8.47,6.59-9.9,12.15c0,0,0,0,0,0c0,0,0,0,0,0
		c0.67,3,2.89,5.19,4.16,7.87c3.2,4.12,5.77,8.75,9.84,12.16c-0.17-1.91-0.75-3.62-0.32-5.77c1.93-9.73,6.99-16.66,16.35-20.27
		C464.97,321.14,462.01,317.68,461.8,313.04L461.8,313.04z"/>
	<path class="st0" d="M472.79,308.18C472.79,308.18,472.78,308.17,472.79,308.18c-0.82-0.8-1.71-1.54-2.45-2.41
		c-1.59-1.86-3.61-2.34-5.76-1.5c-2.09,0.81-2.62,2.73-2.6,4.85c0.01,1.31-0.12,2.62-0.19,3.92c0,0,0,0,0,0v0
		c0.21,4.64,3.17,8.1,5.16,11.98c1.47,1.24,2.83,2.64,4.42,3.7c2.3,1.53,4.72,2.37,6.63-0.68
		C478.68,320.78,475.46,314.55,472.79,308.18z"/>
	<path class="st0" d="M513.87,356.92c3.06-5.63,5.35-11.52,5.99-17.96c-1.15-0.77-0.68-2.12-1.13-3.14c0,0,0,0,0,0
		c-1,5.91-1.95,11.83-4.72,17.25c-0.35,1.3-0.7,2.61-1.05,3.91c0,0,0,0,0,0C513.26,356.93,513.56,356.91,513.87,356.92z"/>
	<path class="st0" d="M441.09,338.89c-0.33,0.35-0.67,0.71-1,1.06c1.87,3.68,4.61,6.75,7.38,9.7c2,2.13,3.37,5.35,7.04,5.39
		c0,0,0,0,0,0c-1.19-1.33-2.39-2.66-3.58-3.99C446.86,347.64,444.29,343.01,441.09,338.89z"/>
	<path class="st0" d="M436.93,331.02C436.93,331.02,436.93,331.02,436.93,331.02c-3.07-4.94-4.74-10.4-5.92-16.04c0,0,0,0,0,0
		c-1.54-3.34-1.66-6.94-1.98-10.5c-0.14-1.55,0.39-2.19,1.96-1.66c0,0,0,0,0,0c0,0,0,0,0,0c0.42-0.32,0.85-0.64,1.27-0.96v0
		c-1.55-0.88-3.08-1.79-5.53-1.71c1.44,14.41,5.07,27.85,13.36,39.8c0.33-0.35,0.67-0.71,1-1.06
		C439.82,336.21,437.6,334.02,436.93,331.02z"/>
	<polygon class="st0" points="448.14,301.06 448.14,301.06 448.14,301.06 	"/>
	<path class="st0" d="M430.99,302.82c5.37,0.72,10.7,0.23,16-0.66c0.38-0.37,0.77-0.74,1.15-1.1c-0.48-0.09-0.96-0.19-1.44-0.28h0
		c-4.76,1.09-9.58,1.43-14.44,1.09C431.83,302.19,431.41,302.5,430.99,302.82C430.99,302.82,430.99,302.82,430.99,302.82z"/>
	<path class="st0" d="M237.5,342.91c3.84,4.81,7.2,9.83,8.58,15.94c0.01,0.04,0.02,0.08,0.03,0.12c0,0,0,0,0,0
		c1.16,1.86,1.87,3.86,1.83,6.08c0,0,0,0,0,0c1.05,2.9,2.18,5.79,1.85,8.98c0,0,0,0,0,0c0.58,1.62,0.02,3.49,1.06,5
		c0.03-0.01,0.07-0.03,0.1-0.04c0.19-1-0.08-2.13,0.85-2.92c-0.21-1.11-0.47-2.21-0.64-3.33c-1.93-12.66-5.46-24.59-15.3-33.65
		C234.14,341.3,236.68,341.88,237.5,342.91z"/>
	<path class="st0" d="M250.93,379.14C250.93,379.14,250.93,379.14,250.93,379.14c-0.02,1.62-0.04,3.23-0.06,4.84
		c-0.02,5.3-0.04,10.59-0.06,15.89v0c0.26,0.5,0.52,1.01,0.79,1.51c0.08,0.15,0.16,0.31,0.24,0.46c1.09-8.6,0.79-17.19-0.03-25.78
		c-0.93,0.79-0.66,1.92-0.85,2.92C250.95,379.04,250.94,379.09,250.93,379.14z"/>
	<path class="st0" d="M223.11,331.9c-0.1,0.13-0.24,0.26-0.27,0.41c-0.03,0.14,0.06,0.44,0.1,0.44c3.71,0.04,6.01,4.32,10.04,3.36
		c-2.08-2.24-4.85-3.21-7.61-4.19c-0.08-0.03-0.17-0.06-0.25-0.09C224.44,331.86,223.77,331.88,223.11,331.9z"/>
	<path class="st0" d="M518.74,332.18C518.74,332.18,518.74,332.18,518.74,332.18C518.73,332.18,518.73,332.18,518.74,332.18
		c0,1.21-0.01,2.42-0.01,3.64c0.45,1.02-0.01,2.37,1.13,3.14c0.81-4.29,0.51-8.58-0.05-12.87
		C518.2,327.9,519.46,330.21,518.74,332.18z"/>
	<path class="st0" d="M518.73,332.18C518.74,332.18,518.74,332.18,518.73,332.18c0.72-1.97-0.54-4.28,1.07-6.09
		c0.29-1.19,0.09-2.24-0.85-3.09C518.06,326.04,517.24,329.08,518.73,332.18z"/>
	<path class="st0" d="M173.99,413.07C173.99,413.07,173.99,413.07,173.99,413.07c-1.76-4.12-1.76-8.52-2.1-12.87
		c-1.44-7.82-1.26-15.63,0.01-23.46c0.3-1.86,1.04-2.54,2.82-2.59c4.79-0.15,8.25-2.83,11.35-6.13c0,0,0,0,0,0
		c0.04-0.46,0.16-0.92,0.28-1.37c0.3-1.09,0.61-2.18-0.12-3.4c-1.96-3.24-5.65-3.46-8.68-4.96c1.85-4.31,3.98-8.15,7.17-11.39
		c0.71-0.73,2.62-1.31,1.2-3.01c-0.31,0.13-0.61,0.12-0.9-0.04c-4.14,3.01-5.96,7.66-8.5,11.83c-1.78,2.93-2.5,4.95,2.17,5.35
		c2.66,0.23,5.7,1.29,6.07,4.28c0.38,3.05-2.66,4.27-4.93,5.6c-0.84,0.49-1.81,0.81-2.76,1.07c-7.33,2.01-7.35,2-7.69,9.87
		c-0.11,2.49-0.26,5-0.17,7.49c0.6,15.94,2.33,31.57,12.89,44.64c0.32-0.33,0.64-0.66,0.95-0.99
		C178.71,426.94,175.67,420.31,173.99,413.07z"/>
	<path class="st0" d="M183.04,432.98c-0.32,0.33-0.64,0.66-0.95,0.99c2.6,4.06,6.17,7.19,9.9,10.15c0,0,0,0,0,0
		C190.35,439.32,185.69,436.96,183.04,432.98z"/>
	<path class="st0" d="M186.07,368.01c-3.1,3.31-6.56,5.99-11.35,6.13c-1.78,0.05-2.51,0.74-2.82,2.59
		c-1.27,7.83-1.46,15.64-0.01,23.46c-0.67-6.24,2.75-10.8,6.53-14.99c13.03-14.45,29.03-22.36,48.84-22.32
		c7.03,0.02,13.85,0.8,20.68,2.17c0.03-2.22-0.67-4.22-1.83-6.08c0,0,0,0,0,0c-0.03-0.03-0.05-0.05-0.08-0.08
		c-1.56-1.59-3.11-2.63-5.65-3.05c-13.44-2.22-26.12,0.41-38.73,4.73c-5.35,1.83-9.75,5.49-15.08,7.26
		C186.41,367.88,186.24,367.96,186.07,368.01C186.07,368.01,186.07,368.01,186.07,368.01z"/>
	<path class="st0" d="M200.9,335.74c2.29-0.29,4.54-0.72,7.64-2.98C204.89,333.51,202.75,334.23,200.9,335.74z"/>
	<path class="st0" d="M491.56,296.28c-12.75-1.73-25.45-0.31-37.46,4.98c-0.92,0.41-2.19,0.8-3.13-0.3c0,0,0,0,0,0c0,0,0,0,0,0
		c-0.92,0.55-1.85,0.83-2.82,0.1c0,0,0,0,0,0c0,0,0,0,0,0c0,0,0,0,0,0c-0.38,0.37-0.77,0.74-1.15,1.1
		c-5.33,4.27-10.66,8.55-15.98,12.82c1.18,5.64,2.84,11.1,5.92,16.04c0,0,0,0,0,0c1.42-5.56,5.81-8.91,9.9-12.15
		c4.26-3.37,8.92-6.65,14.97-5.83c0,0,0,0,0,0c0.07-1.31,0.2-2.62,0.19-3.92c-0.02-2.12,0.51-4.03,2.6-4.85
		c2.15-0.84,4.17-0.36,5.76,1.5c0.74,0.86,1.62,1.61,2.44,2.4c0,0,0,0,0,0c0.7-0.39,1.36-0.97,2.11-1.13
		c12.8-2.7,24.51,0.32,35.5,6.94c1.68,1.01,3.18,2.58,5.34,1.12c-0.72-3.89-2.29-7.49-3.89-11.08
		C506.83,296.97,498.64,297.24,491.56,296.28z"/>
	<path class="st0" d="M454.1,301.26c12.02-5.29,24.71-6.71,37.46-4.98c7.08,0.96,15.27,0.69,20.29,7.75
		c-1.3-5.16-3.85-9.71-6.79-14.07c0,0,0,0,0,0c-1.66-0.03-3.4,0.26-4.97-0.13c-13.53-3.37-26.93-1.97-40.35,0.73
		c-4.11,0.83-7.9,1.24-6.89,7.03c0.17,0.98-1.21,2.24-1.88,3.37c0,0,0,0,0,0C451.91,302.06,453.17,301.66,454.1,301.26z"/>
	<path class="st0" d="M178.42,385.2c-3.78,4.19-7.21,8.76-6.53,14.99c0.34,4.35,0.34,8.75,2.1,12.87c0,0,0,0,0,0
		c1.31-2.26,2.61-4.53,3.93-6.79c4.92-8.47,10.35-16.59,18.63-22.14c4.38-2.94,8.76-6.37,14.57-6.08c0,0,0,0,0,0
		c1.82-3.68,3.59-7.47,8.88-5.01c5.42-4.35,11.53-2.44,17.4-1.7c4.18,0.53,8.28,1.76,12.41,2.68c0.33-3.19-0.81-6.07-1.85-8.98
		c0,0,0,0,0,0c-6.83-1.36-13.65-2.15-20.68-2.17C207.46,362.84,191.46,370.76,178.42,385.2z"/>
	<path class="st0" d="M219.99,373.05c2.07,2.24,2.31,5.2,3.11,7.94c0,0,0,0,0,0c2.29-0.82,4.08-2.8,6.83-2.56
		c7.31,0.64,14.28,2.48,20.93,5.56c0.02-1.61,0.04-3.23,0.06-4.84c0,0,0,0,0,0c-0.03-0.04-0.04-0.08-0.07-0.11
		c-1.04-1.52-0.48-3.38-1.06-5c0,0,0,0,0,0c-4.13-0.92-8.23-2.15-12.41-2.68C231.52,370.61,225.41,368.71,219.99,373.05z"/>
	<path class="st0" d="M430.99,302.82C430.99,302.82,430.99,302.82,430.99,302.82c-1.57-0.53-2.1,0.11-1.96,1.66
		c0.32,3.57,0.45,7.17,1.98,10.5c0,0,0,0,0,0c5.33-4.27,10.66-8.55,15.98-12.82C441.69,303.06,436.36,303.54,430.99,302.82z"/>
</g>
</svg>
